%TF.GenerationSoftware,KiCad,Pcbnew,9.0.6-9.0.6~ubuntu22.04.1*%
%TF.CreationDate,2026-01-05T20:27:45-07:00*%
%TF.ProjectId,Spiro_Brick,53706972-6f5f-4427-9269-636b2e6b6963,1.3.0*%
%TF.SameCoordinates,Original*%
%TF.FileFunction,Other,Comment*%
%FSLAX46Y46*%
G04 Gerber Fmt 4.6, Leading zero omitted, Abs format (unit mm)*
G04 Created by KiCad (PCBNEW 9.0.6-9.0.6~ubuntu22.04.1) date 2026-01-05 20:27:45*
%MOMM*%
%LPD*%
G01*
G04 APERTURE LIST*
%ADD10C,0.100000*%
%ADD11C,0.150000*%
%ADD12C,0.300000*%
%ADD13C,0.400000*%
G04 APERTURE END LIST*
D10*
D11*
X177002200Y-166007200D02*
X285002200Y-166007200D01*
X285002200Y-198007200D01*
X177002200Y-198007200D01*
X177002200Y-166007200D01*
D10*
D11*
X10000000Y-10000000D02*
X287002200Y-10000000D01*
X287002200Y-200007200D01*
X10000000Y-200007200D01*
X10000000Y-10000000D01*
D10*
D11*
X12000000Y-12000000D02*
X285002200Y-12000000D01*
X285002200Y-198007200D01*
X12000000Y-198007200D01*
X12000000Y-12000000D01*
D10*
D11*
X60000000Y-12000000D02*
X60000000Y-10000000D01*
D10*
D11*
X110000000Y-12000000D02*
X110000000Y-10000000D01*
D10*
D11*
X160000000Y-12000000D02*
X160000000Y-10000000D01*
D10*
D11*
X210000000Y-12000000D02*
X210000000Y-10000000D01*
D10*
D11*
X260000000Y-12000000D02*
X260000000Y-10000000D01*
D10*
D11*
X36089160Y-11593604D02*
X35346303Y-11593604D01*
X35717731Y-11593604D02*
X35717731Y-10293604D01*
X35717731Y-10293604D02*
X35593922Y-10479319D01*
X35593922Y-10479319D02*
X35470112Y-10603128D01*
X35470112Y-10603128D02*
X35346303Y-10665033D01*
D10*
D11*
X85346303Y-10417414D02*
X85408207Y-10355509D01*
X85408207Y-10355509D02*
X85532017Y-10293604D01*
X85532017Y-10293604D02*
X85841541Y-10293604D01*
X85841541Y-10293604D02*
X85965350Y-10355509D01*
X85965350Y-10355509D02*
X86027255Y-10417414D01*
X86027255Y-10417414D02*
X86089160Y-10541223D01*
X86089160Y-10541223D02*
X86089160Y-10665033D01*
X86089160Y-10665033D02*
X86027255Y-10850747D01*
X86027255Y-10850747D02*
X85284398Y-11593604D01*
X85284398Y-11593604D02*
X86089160Y-11593604D01*
D10*
D11*
X135284398Y-10293604D02*
X136089160Y-10293604D01*
X136089160Y-10293604D02*
X135655826Y-10788842D01*
X135655826Y-10788842D02*
X135841541Y-10788842D01*
X135841541Y-10788842D02*
X135965350Y-10850747D01*
X135965350Y-10850747D02*
X136027255Y-10912652D01*
X136027255Y-10912652D02*
X136089160Y-11036461D01*
X136089160Y-11036461D02*
X136089160Y-11345985D01*
X136089160Y-11345985D02*
X136027255Y-11469795D01*
X136027255Y-11469795D02*
X135965350Y-11531700D01*
X135965350Y-11531700D02*
X135841541Y-11593604D01*
X135841541Y-11593604D02*
X135470112Y-11593604D01*
X135470112Y-11593604D02*
X135346303Y-11531700D01*
X135346303Y-11531700D02*
X135284398Y-11469795D01*
D10*
D11*
X185965350Y-10726938D02*
X185965350Y-11593604D01*
X185655826Y-10231700D02*
X185346303Y-11160271D01*
X185346303Y-11160271D02*
X186151064Y-11160271D01*
D10*
D11*
X236027255Y-10293604D02*
X235408207Y-10293604D01*
X235408207Y-10293604D02*
X235346303Y-10912652D01*
X235346303Y-10912652D02*
X235408207Y-10850747D01*
X235408207Y-10850747D02*
X235532017Y-10788842D01*
X235532017Y-10788842D02*
X235841541Y-10788842D01*
X235841541Y-10788842D02*
X235965350Y-10850747D01*
X235965350Y-10850747D02*
X236027255Y-10912652D01*
X236027255Y-10912652D02*
X236089160Y-11036461D01*
X236089160Y-11036461D02*
X236089160Y-11345985D01*
X236089160Y-11345985D02*
X236027255Y-11469795D01*
X236027255Y-11469795D02*
X235965350Y-11531700D01*
X235965350Y-11531700D02*
X235841541Y-11593604D01*
X235841541Y-11593604D02*
X235532017Y-11593604D01*
X235532017Y-11593604D02*
X235408207Y-11531700D01*
X235408207Y-11531700D02*
X235346303Y-11469795D01*
D10*
D11*
X285965350Y-10293604D02*
X285717731Y-10293604D01*
X285717731Y-10293604D02*
X285593922Y-10355509D01*
X285593922Y-10355509D02*
X285532017Y-10417414D01*
X285532017Y-10417414D02*
X285408207Y-10603128D01*
X285408207Y-10603128D02*
X285346303Y-10850747D01*
X285346303Y-10850747D02*
X285346303Y-11345985D01*
X285346303Y-11345985D02*
X285408207Y-11469795D01*
X285408207Y-11469795D02*
X285470112Y-11531700D01*
X285470112Y-11531700D02*
X285593922Y-11593604D01*
X285593922Y-11593604D02*
X285841541Y-11593604D01*
X285841541Y-11593604D02*
X285965350Y-11531700D01*
X285965350Y-11531700D02*
X286027255Y-11469795D01*
X286027255Y-11469795D02*
X286089160Y-11345985D01*
X286089160Y-11345985D02*
X286089160Y-11036461D01*
X286089160Y-11036461D02*
X286027255Y-10912652D01*
X286027255Y-10912652D02*
X285965350Y-10850747D01*
X285965350Y-10850747D02*
X285841541Y-10788842D01*
X285841541Y-10788842D02*
X285593922Y-10788842D01*
X285593922Y-10788842D02*
X285470112Y-10850747D01*
X285470112Y-10850747D02*
X285408207Y-10912652D01*
X285408207Y-10912652D02*
X285346303Y-11036461D01*
D10*
D11*
X60000000Y-198007200D02*
X60000000Y-200007200D01*
D10*
D11*
X110000000Y-198007200D02*
X110000000Y-200007200D01*
D10*
D11*
X160000000Y-198007200D02*
X160000000Y-200007200D01*
D10*
D11*
X210000000Y-198007200D02*
X210000000Y-200007200D01*
D10*
D11*
X260000000Y-198007200D02*
X260000000Y-200007200D01*
D10*
D11*
X36089160Y-199600804D02*
X35346303Y-199600804D01*
X35717731Y-199600804D02*
X35717731Y-198300804D01*
X35717731Y-198300804D02*
X35593922Y-198486519D01*
X35593922Y-198486519D02*
X35470112Y-198610328D01*
X35470112Y-198610328D02*
X35346303Y-198672233D01*
D10*
D11*
X85346303Y-198424614D02*
X85408207Y-198362709D01*
X85408207Y-198362709D02*
X85532017Y-198300804D01*
X85532017Y-198300804D02*
X85841541Y-198300804D01*
X85841541Y-198300804D02*
X85965350Y-198362709D01*
X85965350Y-198362709D02*
X86027255Y-198424614D01*
X86027255Y-198424614D02*
X86089160Y-198548423D01*
X86089160Y-198548423D02*
X86089160Y-198672233D01*
X86089160Y-198672233D02*
X86027255Y-198857947D01*
X86027255Y-198857947D02*
X85284398Y-199600804D01*
X85284398Y-199600804D02*
X86089160Y-199600804D01*
D10*
D11*
X135284398Y-198300804D02*
X136089160Y-198300804D01*
X136089160Y-198300804D02*
X135655826Y-198796042D01*
X135655826Y-198796042D02*
X135841541Y-198796042D01*
X135841541Y-198796042D02*
X135965350Y-198857947D01*
X135965350Y-198857947D02*
X136027255Y-198919852D01*
X136027255Y-198919852D02*
X136089160Y-199043661D01*
X136089160Y-199043661D02*
X136089160Y-199353185D01*
X136089160Y-199353185D02*
X136027255Y-199476995D01*
X136027255Y-199476995D02*
X135965350Y-199538900D01*
X135965350Y-199538900D02*
X135841541Y-199600804D01*
X135841541Y-199600804D02*
X135470112Y-199600804D01*
X135470112Y-199600804D02*
X135346303Y-199538900D01*
X135346303Y-199538900D02*
X135284398Y-199476995D01*
D10*
D11*
X185965350Y-198734138D02*
X185965350Y-199600804D01*
X185655826Y-198238900D02*
X185346303Y-199167471D01*
X185346303Y-199167471D02*
X186151064Y-199167471D01*
D10*
D11*
X236027255Y-198300804D02*
X235408207Y-198300804D01*
X235408207Y-198300804D02*
X235346303Y-198919852D01*
X235346303Y-198919852D02*
X235408207Y-198857947D01*
X235408207Y-198857947D02*
X235532017Y-198796042D01*
X235532017Y-198796042D02*
X235841541Y-198796042D01*
X235841541Y-198796042D02*
X235965350Y-198857947D01*
X235965350Y-198857947D02*
X236027255Y-198919852D01*
X236027255Y-198919852D02*
X236089160Y-199043661D01*
X236089160Y-199043661D02*
X236089160Y-199353185D01*
X236089160Y-199353185D02*
X236027255Y-199476995D01*
X236027255Y-199476995D02*
X235965350Y-199538900D01*
X235965350Y-199538900D02*
X235841541Y-199600804D01*
X235841541Y-199600804D02*
X235532017Y-199600804D01*
X235532017Y-199600804D02*
X235408207Y-199538900D01*
X235408207Y-199538900D02*
X235346303Y-199476995D01*
D10*
D11*
X285965350Y-198300804D02*
X285717731Y-198300804D01*
X285717731Y-198300804D02*
X285593922Y-198362709D01*
X285593922Y-198362709D02*
X285532017Y-198424614D01*
X285532017Y-198424614D02*
X285408207Y-198610328D01*
X285408207Y-198610328D02*
X285346303Y-198857947D01*
X285346303Y-198857947D02*
X285346303Y-199353185D01*
X285346303Y-199353185D02*
X285408207Y-199476995D01*
X285408207Y-199476995D02*
X285470112Y-199538900D01*
X285470112Y-199538900D02*
X285593922Y-199600804D01*
X285593922Y-199600804D02*
X285841541Y-199600804D01*
X285841541Y-199600804D02*
X285965350Y-199538900D01*
X285965350Y-199538900D02*
X286027255Y-199476995D01*
X286027255Y-199476995D02*
X286089160Y-199353185D01*
X286089160Y-199353185D02*
X286089160Y-199043661D01*
X286089160Y-199043661D02*
X286027255Y-198919852D01*
X286027255Y-198919852D02*
X285965350Y-198857947D01*
X285965350Y-198857947D02*
X285841541Y-198796042D01*
X285841541Y-198796042D02*
X285593922Y-198796042D01*
X285593922Y-198796042D02*
X285470112Y-198857947D01*
X285470112Y-198857947D02*
X285408207Y-198919852D01*
X285408207Y-198919852D02*
X285346303Y-199043661D01*
D10*
D11*
X10000000Y-60000000D02*
X12000000Y-60000000D01*
D10*
D11*
X10000000Y-110000000D02*
X12000000Y-110000000D01*
D10*
D11*
X10000000Y-160000000D02*
X12000000Y-160000000D01*
D10*
D11*
X10690476Y-35222176D02*
X11309523Y-35222176D01*
X10566666Y-35593604D02*
X10999999Y-34293604D01*
X10999999Y-34293604D02*
X11433333Y-35593604D01*
D10*
D11*
X11092857Y-84912652D02*
X11278571Y-84974557D01*
X11278571Y-84974557D02*
X11340476Y-85036461D01*
X11340476Y-85036461D02*
X11402380Y-85160271D01*
X11402380Y-85160271D02*
X11402380Y-85345985D01*
X11402380Y-85345985D02*
X11340476Y-85469795D01*
X11340476Y-85469795D02*
X11278571Y-85531700D01*
X11278571Y-85531700D02*
X11154761Y-85593604D01*
X11154761Y-85593604D02*
X10659523Y-85593604D01*
X10659523Y-85593604D02*
X10659523Y-84293604D01*
X10659523Y-84293604D02*
X11092857Y-84293604D01*
X11092857Y-84293604D02*
X11216666Y-84355509D01*
X11216666Y-84355509D02*
X11278571Y-84417414D01*
X11278571Y-84417414D02*
X11340476Y-84541223D01*
X11340476Y-84541223D02*
X11340476Y-84665033D01*
X11340476Y-84665033D02*
X11278571Y-84788842D01*
X11278571Y-84788842D02*
X11216666Y-84850747D01*
X11216666Y-84850747D02*
X11092857Y-84912652D01*
X11092857Y-84912652D02*
X10659523Y-84912652D01*
D10*
D11*
X11402380Y-135469795D02*
X11340476Y-135531700D01*
X11340476Y-135531700D02*
X11154761Y-135593604D01*
X11154761Y-135593604D02*
X11030952Y-135593604D01*
X11030952Y-135593604D02*
X10845238Y-135531700D01*
X10845238Y-135531700D02*
X10721428Y-135407890D01*
X10721428Y-135407890D02*
X10659523Y-135284080D01*
X10659523Y-135284080D02*
X10597619Y-135036461D01*
X10597619Y-135036461D02*
X10597619Y-134850747D01*
X10597619Y-134850747D02*
X10659523Y-134603128D01*
X10659523Y-134603128D02*
X10721428Y-134479319D01*
X10721428Y-134479319D02*
X10845238Y-134355509D01*
X10845238Y-134355509D02*
X11030952Y-134293604D01*
X11030952Y-134293604D02*
X11154761Y-134293604D01*
X11154761Y-134293604D02*
X11340476Y-134355509D01*
X11340476Y-134355509D02*
X11402380Y-134417414D01*
D10*
D11*
X10659523Y-185593604D02*
X10659523Y-184293604D01*
X10659523Y-184293604D02*
X10969047Y-184293604D01*
X10969047Y-184293604D02*
X11154761Y-184355509D01*
X11154761Y-184355509D02*
X11278571Y-184479319D01*
X11278571Y-184479319D02*
X11340476Y-184603128D01*
X11340476Y-184603128D02*
X11402380Y-184850747D01*
X11402380Y-184850747D02*
X11402380Y-185036461D01*
X11402380Y-185036461D02*
X11340476Y-185284080D01*
X11340476Y-185284080D02*
X11278571Y-185407890D01*
X11278571Y-185407890D02*
X11154761Y-185531700D01*
X11154761Y-185531700D02*
X10969047Y-185593604D01*
X10969047Y-185593604D02*
X10659523Y-185593604D01*
D10*
D11*
X287002200Y-60000000D02*
X285002200Y-60000000D01*
D10*
D11*
X287002200Y-110000000D02*
X285002200Y-110000000D01*
D10*
D11*
X287002200Y-160000000D02*
X285002200Y-160000000D01*
D10*
D11*
X285692676Y-35222176D02*
X286311723Y-35222176D01*
X285568866Y-35593604D02*
X286002199Y-34293604D01*
X286002199Y-34293604D02*
X286435533Y-35593604D01*
D10*
D11*
X286095057Y-84912652D02*
X286280771Y-84974557D01*
X286280771Y-84974557D02*
X286342676Y-85036461D01*
X286342676Y-85036461D02*
X286404580Y-85160271D01*
X286404580Y-85160271D02*
X286404580Y-85345985D01*
X286404580Y-85345985D02*
X286342676Y-85469795D01*
X286342676Y-85469795D02*
X286280771Y-85531700D01*
X286280771Y-85531700D02*
X286156961Y-85593604D01*
X286156961Y-85593604D02*
X285661723Y-85593604D01*
X285661723Y-85593604D02*
X285661723Y-84293604D01*
X285661723Y-84293604D02*
X286095057Y-84293604D01*
X286095057Y-84293604D02*
X286218866Y-84355509D01*
X286218866Y-84355509D02*
X286280771Y-84417414D01*
X286280771Y-84417414D02*
X286342676Y-84541223D01*
X286342676Y-84541223D02*
X286342676Y-84665033D01*
X286342676Y-84665033D02*
X286280771Y-84788842D01*
X286280771Y-84788842D02*
X286218866Y-84850747D01*
X286218866Y-84850747D02*
X286095057Y-84912652D01*
X286095057Y-84912652D02*
X285661723Y-84912652D01*
D10*
D11*
X286404580Y-135469795D02*
X286342676Y-135531700D01*
X286342676Y-135531700D02*
X286156961Y-135593604D01*
X286156961Y-135593604D02*
X286033152Y-135593604D01*
X286033152Y-135593604D02*
X285847438Y-135531700D01*
X285847438Y-135531700D02*
X285723628Y-135407890D01*
X285723628Y-135407890D02*
X285661723Y-135284080D01*
X285661723Y-135284080D02*
X285599819Y-135036461D01*
X285599819Y-135036461D02*
X285599819Y-134850747D01*
X285599819Y-134850747D02*
X285661723Y-134603128D01*
X285661723Y-134603128D02*
X285723628Y-134479319D01*
X285723628Y-134479319D02*
X285847438Y-134355509D01*
X285847438Y-134355509D02*
X286033152Y-134293604D01*
X286033152Y-134293604D02*
X286156961Y-134293604D01*
X286156961Y-134293604D02*
X286342676Y-134355509D01*
X286342676Y-134355509D02*
X286404580Y-134417414D01*
D10*
D11*
X285661723Y-185593604D02*
X285661723Y-184293604D01*
X285661723Y-184293604D02*
X285971247Y-184293604D01*
X285971247Y-184293604D02*
X286156961Y-184355509D01*
X286156961Y-184355509D02*
X286280771Y-184479319D01*
X286280771Y-184479319D02*
X286342676Y-184603128D01*
X286342676Y-184603128D02*
X286404580Y-184850747D01*
X286404580Y-184850747D02*
X286404580Y-185036461D01*
X286404580Y-185036461D02*
X286342676Y-185284080D01*
X286342676Y-185284080D02*
X286280771Y-185407890D01*
X286280771Y-185407890D02*
X286156961Y-185531700D01*
X286156961Y-185531700D02*
X285971247Y-185593604D01*
X285971247Y-185593604D02*
X285661723Y-185593604D01*
D10*
D11*
X200458026Y-193793328D02*
X200458026Y-192293328D01*
X200458026Y-192293328D02*
X200815169Y-192293328D01*
X200815169Y-192293328D02*
X201029455Y-192364757D01*
X201029455Y-192364757D02*
X201172312Y-192507614D01*
X201172312Y-192507614D02*
X201243741Y-192650471D01*
X201243741Y-192650471D02*
X201315169Y-192936185D01*
X201315169Y-192936185D02*
X201315169Y-193150471D01*
X201315169Y-193150471D02*
X201243741Y-193436185D01*
X201243741Y-193436185D02*
X201172312Y-193579042D01*
X201172312Y-193579042D02*
X201029455Y-193721900D01*
X201029455Y-193721900D02*
X200815169Y-193793328D01*
X200815169Y-193793328D02*
X200458026Y-193793328D01*
X202600884Y-193793328D02*
X202600884Y-193007614D01*
X202600884Y-193007614D02*
X202529455Y-192864757D01*
X202529455Y-192864757D02*
X202386598Y-192793328D01*
X202386598Y-192793328D02*
X202100884Y-192793328D01*
X202100884Y-192793328D02*
X201958026Y-192864757D01*
X202600884Y-193721900D02*
X202458026Y-193793328D01*
X202458026Y-193793328D02*
X202100884Y-193793328D01*
X202100884Y-193793328D02*
X201958026Y-193721900D01*
X201958026Y-193721900D02*
X201886598Y-193579042D01*
X201886598Y-193579042D02*
X201886598Y-193436185D01*
X201886598Y-193436185D02*
X201958026Y-193293328D01*
X201958026Y-193293328D02*
X202100884Y-193221900D01*
X202100884Y-193221900D02*
X202458026Y-193221900D01*
X202458026Y-193221900D02*
X202600884Y-193150471D01*
X203100884Y-192793328D02*
X203672312Y-192793328D01*
X203315169Y-192293328D02*
X203315169Y-193579042D01*
X203315169Y-193579042D02*
X203386598Y-193721900D01*
X203386598Y-193721900D02*
X203529455Y-193793328D01*
X203529455Y-193793328D02*
X203672312Y-193793328D01*
X204743741Y-193721900D02*
X204600884Y-193793328D01*
X204600884Y-193793328D02*
X204315170Y-193793328D01*
X204315170Y-193793328D02*
X204172312Y-193721900D01*
X204172312Y-193721900D02*
X204100884Y-193579042D01*
X204100884Y-193579042D02*
X204100884Y-193007614D01*
X204100884Y-193007614D02*
X204172312Y-192864757D01*
X204172312Y-192864757D02*
X204315170Y-192793328D01*
X204315170Y-192793328D02*
X204600884Y-192793328D01*
X204600884Y-192793328D02*
X204743741Y-192864757D01*
X204743741Y-192864757D02*
X204815170Y-193007614D01*
X204815170Y-193007614D02*
X204815170Y-193150471D01*
X204815170Y-193150471D02*
X204100884Y-193293328D01*
X205458026Y-193650471D02*
X205529455Y-193721900D01*
X205529455Y-193721900D02*
X205458026Y-193793328D01*
X205458026Y-193793328D02*
X205386598Y-193721900D01*
X205386598Y-193721900D02*
X205458026Y-193650471D01*
X205458026Y-193650471D02*
X205458026Y-193793328D01*
X205458026Y-192864757D02*
X205529455Y-192936185D01*
X205529455Y-192936185D02*
X205458026Y-193007614D01*
X205458026Y-193007614D02*
X205386598Y-192936185D01*
X205386598Y-192936185D02*
X205458026Y-192864757D01*
X205458026Y-192864757D02*
X205458026Y-193007614D01*
X207243741Y-192436185D02*
X207315169Y-192364757D01*
X207315169Y-192364757D02*
X207458027Y-192293328D01*
X207458027Y-192293328D02*
X207815169Y-192293328D01*
X207815169Y-192293328D02*
X207958027Y-192364757D01*
X207958027Y-192364757D02*
X208029455Y-192436185D01*
X208029455Y-192436185D02*
X208100884Y-192579042D01*
X208100884Y-192579042D02*
X208100884Y-192721900D01*
X208100884Y-192721900D02*
X208029455Y-192936185D01*
X208029455Y-192936185D02*
X207172312Y-193793328D01*
X207172312Y-193793328D02*
X208100884Y-193793328D01*
X209029455Y-192293328D02*
X209172312Y-192293328D01*
X209172312Y-192293328D02*
X209315169Y-192364757D01*
X209315169Y-192364757D02*
X209386598Y-192436185D01*
X209386598Y-192436185D02*
X209458026Y-192579042D01*
X209458026Y-192579042D02*
X209529455Y-192864757D01*
X209529455Y-192864757D02*
X209529455Y-193221900D01*
X209529455Y-193221900D02*
X209458026Y-193507614D01*
X209458026Y-193507614D02*
X209386598Y-193650471D01*
X209386598Y-193650471D02*
X209315169Y-193721900D01*
X209315169Y-193721900D02*
X209172312Y-193793328D01*
X209172312Y-193793328D02*
X209029455Y-193793328D01*
X209029455Y-193793328D02*
X208886598Y-193721900D01*
X208886598Y-193721900D02*
X208815169Y-193650471D01*
X208815169Y-193650471D02*
X208743740Y-193507614D01*
X208743740Y-193507614D02*
X208672312Y-193221900D01*
X208672312Y-193221900D02*
X208672312Y-192864757D01*
X208672312Y-192864757D02*
X208743740Y-192579042D01*
X208743740Y-192579042D02*
X208815169Y-192436185D01*
X208815169Y-192436185D02*
X208886598Y-192364757D01*
X208886598Y-192364757D02*
X209029455Y-192293328D01*
X210100883Y-192436185D02*
X210172311Y-192364757D01*
X210172311Y-192364757D02*
X210315169Y-192293328D01*
X210315169Y-192293328D02*
X210672311Y-192293328D01*
X210672311Y-192293328D02*
X210815169Y-192364757D01*
X210815169Y-192364757D02*
X210886597Y-192436185D01*
X210886597Y-192436185D02*
X210958026Y-192579042D01*
X210958026Y-192579042D02*
X210958026Y-192721900D01*
X210958026Y-192721900D02*
X210886597Y-192936185D01*
X210886597Y-192936185D02*
X210029454Y-193793328D01*
X210029454Y-193793328D02*
X210958026Y-193793328D01*
X212315168Y-192293328D02*
X211600882Y-192293328D01*
X211600882Y-192293328D02*
X211529454Y-193007614D01*
X211529454Y-193007614D02*
X211600882Y-192936185D01*
X211600882Y-192936185D02*
X211743740Y-192864757D01*
X211743740Y-192864757D02*
X212100882Y-192864757D01*
X212100882Y-192864757D02*
X212243740Y-192936185D01*
X212243740Y-192936185D02*
X212315168Y-193007614D01*
X212315168Y-193007614D02*
X212386597Y-193150471D01*
X212386597Y-193150471D02*
X212386597Y-193507614D01*
X212386597Y-193507614D02*
X212315168Y-193650471D01*
X212315168Y-193650471D02*
X212243740Y-193721900D01*
X212243740Y-193721900D02*
X212100882Y-193793328D01*
X212100882Y-193793328D02*
X211743740Y-193793328D01*
X211743740Y-193793328D02*
X211600882Y-193721900D01*
X211600882Y-193721900D02*
X211529454Y-193650471D01*
X213029453Y-193221900D02*
X214172311Y-193221900D01*
X215672311Y-193793328D02*
X214815168Y-193793328D01*
X215243739Y-193793328D02*
X215243739Y-192293328D01*
X215243739Y-192293328D02*
X215100882Y-192507614D01*
X215100882Y-192507614D02*
X214958025Y-192650471D01*
X214958025Y-192650471D02*
X214815168Y-192721900D01*
X216243739Y-192436185D02*
X216315167Y-192364757D01*
X216315167Y-192364757D02*
X216458025Y-192293328D01*
X216458025Y-192293328D02*
X216815167Y-192293328D01*
X216815167Y-192293328D02*
X216958025Y-192364757D01*
X216958025Y-192364757D02*
X217029453Y-192436185D01*
X217029453Y-192436185D02*
X217100882Y-192579042D01*
X217100882Y-192579042D02*
X217100882Y-192721900D01*
X217100882Y-192721900D02*
X217029453Y-192936185D01*
X217029453Y-192936185D02*
X216172310Y-193793328D01*
X216172310Y-193793328D02*
X217100882Y-193793328D01*
X217743738Y-193221900D02*
X218886596Y-193221900D01*
X219458024Y-192293328D02*
X220386596Y-192293328D01*
X220386596Y-192293328D02*
X219886596Y-192864757D01*
X219886596Y-192864757D02*
X220100881Y-192864757D01*
X220100881Y-192864757D02*
X220243739Y-192936185D01*
X220243739Y-192936185D02*
X220315167Y-193007614D01*
X220315167Y-193007614D02*
X220386596Y-193150471D01*
X220386596Y-193150471D02*
X220386596Y-193507614D01*
X220386596Y-193507614D02*
X220315167Y-193650471D01*
X220315167Y-193650471D02*
X220243739Y-193721900D01*
X220243739Y-193721900D02*
X220100881Y-193793328D01*
X220100881Y-193793328D02*
X219672310Y-193793328D01*
X219672310Y-193793328D02*
X219529453Y-193721900D01*
X219529453Y-193721900D02*
X219458024Y-193650471D01*
X221815167Y-193793328D02*
X220958024Y-193793328D01*
X221386595Y-193793328D02*
X221386595Y-192293328D01*
X221386595Y-192293328D02*
X221243738Y-192507614D01*
X221243738Y-192507614D02*
X221100881Y-192650471D01*
X221100881Y-192650471D02*
X220958024Y-192721900D01*
D10*
D11*
X177002200Y-194507200D02*
X285002200Y-194507200D01*
D10*
D11*
X178458026Y-196593328D02*
X178458026Y-195093328D01*
X179315169Y-196593328D02*
X178672312Y-195736185D01*
X179315169Y-195093328D02*
X178458026Y-195950471D01*
X179958026Y-196593328D02*
X179958026Y-195593328D01*
X179958026Y-195093328D02*
X179886598Y-195164757D01*
X179886598Y-195164757D02*
X179958026Y-195236185D01*
X179958026Y-195236185D02*
X180029455Y-195164757D01*
X180029455Y-195164757D02*
X179958026Y-195093328D01*
X179958026Y-195093328D02*
X179958026Y-195236185D01*
X181529455Y-196450471D02*
X181458027Y-196521900D01*
X181458027Y-196521900D02*
X181243741Y-196593328D01*
X181243741Y-196593328D02*
X181100884Y-196593328D01*
X181100884Y-196593328D02*
X180886598Y-196521900D01*
X180886598Y-196521900D02*
X180743741Y-196379042D01*
X180743741Y-196379042D02*
X180672312Y-196236185D01*
X180672312Y-196236185D02*
X180600884Y-195950471D01*
X180600884Y-195950471D02*
X180600884Y-195736185D01*
X180600884Y-195736185D02*
X180672312Y-195450471D01*
X180672312Y-195450471D02*
X180743741Y-195307614D01*
X180743741Y-195307614D02*
X180886598Y-195164757D01*
X180886598Y-195164757D02*
X181100884Y-195093328D01*
X181100884Y-195093328D02*
X181243741Y-195093328D01*
X181243741Y-195093328D02*
X181458027Y-195164757D01*
X181458027Y-195164757D02*
X181529455Y-195236185D01*
X182815170Y-196593328D02*
X182815170Y-195807614D01*
X182815170Y-195807614D02*
X182743741Y-195664757D01*
X182743741Y-195664757D02*
X182600884Y-195593328D01*
X182600884Y-195593328D02*
X182315170Y-195593328D01*
X182315170Y-195593328D02*
X182172312Y-195664757D01*
X182815170Y-196521900D02*
X182672312Y-196593328D01*
X182672312Y-196593328D02*
X182315170Y-196593328D01*
X182315170Y-196593328D02*
X182172312Y-196521900D01*
X182172312Y-196521900D02*
X182100884Y-196379042D01*
X182100884Y-196379042D02*
X182100884Y-196236185D01*
X182100884Y-196236185D02*
X182172312Y-196093328D01*
X182172312Y-196093328D02*
X182315170Y-196021900D01*
X182315170Y-196021900D02*
X182672312Y-196021900D01*
X182672312Y-196021900D02*
X182815170Y-195950471D01*
X184172313Y-196593328D02*
X184172313Y-195093328D01*
X184172313Y-196521900D02*
X184029455Y-196593328D01*
X184029455Y-196593328D02*
X183743741Y-196593328D01*
X183743741Y-196593328D02*
X183600884Y-196521900D01*
X183600884Y-196521900D02*
X183529455Y-196450471D01*
X183529455Y-196450471D02*
X183458027Y-196307614D01*
X183458027Y-196307614D02*
X183458027Y-195879042D01*
X183458027Y-195879042D02*
X183529455Y-195736185D01*
X183529455Y-195736185D02*
X183600884Y-195664757D01*
X183600884Y-195664757D02*
X183743741Y-195593328D01*
X183743741Y-195593328D02*
X184029455Y-195593328D01*
X184029455Y-195593328D02*
X184172313Y-195664757D01*
X186029455Y-195807614D02*
X186529455Y-195807614D01*
X186743741Y-196593328D02*
X186029455Y-196593328D01*
X186029455Y-196593328D02*
X186029455Y-195093328D01*
X186029455Y-195093328D02*
X186743741Y-195093328D01*
X187386598Y-196450471D02*
X187458027Y-196521900D01*
X187458027Y-196521900D02*
X187386598Y-196593328D01*
X187386598Y-196593328D02*
X187315170Y-196521900D01*
X187315170Y-196521900D02*
X187386598Y-196450471D01*
X187386598Y-196450471D02*
X187386598Y-196593328D01*
X188100884Y-196593328D02*
X188100884Y-195093328D01*
X188100884Y-195093328D02*
X188458027Y-195093328D01*
X188458027Y-195093328D02*
X188672313Y-195164757D01*
X188672313Y-195164757D02*
X188815170Y-195307614D01*
X188815170Y-195307614D02*
X188886599Y-195450471D01*
X188886599Y-195450471D02*
X188958027Y-195736185D01*
X188958027Y-195736185D02*
X188958027Y-195950471D01*
X188958027Y-195950471D02*
X188886599Y-196236185D01*
X188886599Y-196236185D02*
X188815170Y-196379042D01*
X188815170Y-196379042D02*
X188672313Y-196521900D01*
X188672313Y-196521900D02*
X188458027Y-196593328D01*
X188458027Y-196593328D02*
X188100884Y-196593328D01*
X189600884Y-196450471D02*
X189672313Y-196521900D01*
X189672313Y-196521900D02*
X189600884Y-196593328D01*
X189600884Y-196593328D02*
X189529456Y-196521900D01*
X189529456Y-196521900D02*
X189600884Y-196450471D01*
X189600884Y-196450471D02*
X189600884Y-196593328D01*
X190243742Y-196164757D02*
X190958028Y-196164757D01*
X190100885Y-196593328D02*
X190600885Y-195093328D01*
X190600885Y-195093328D02*
X191100885Y-196593328D01*
X191600884Y-196450471D02*
X191672313Y-196521900D01*
X191672313Y-196521900D02*
X191600884Y-196593328D01*
X191600884Y-196593328D02*
X191529456Y-196521900D01*
X191529456Y-196521900D02*
X191600884Y-196450471D01*
X191600884Y-196450471D02*
X191600884Y-196593328D01*
X193529456Y-196593328D02*
X193815170Y-196593328D01*
X193815170Y-196593328D02*
X193958027Y-196521900D01*
X193958027Y-196521900D02*
X194029456Y-196450471D01*
X194029456Y-196450471D02*
X194172313Y-196236185D01*
X194172313Y-196236185D02*
X194243742Y-195950471D01*
X194243742Y-195950471D02*
X194243742Y-195379042D01*
X194243742Y-195379042D02*
X194172313Y-195236185D01*
X194172313Y-195236185D02*
X194100885Y-195164757D01*
X194100885Y-195164757D02*
X193958027Y-195093328D01*
X193958027Y-195093328D02*
X193672313Y-195093328D01*
X193672313Y-195093328D02*
X193529456Y-195164757D01*
X193529456Y-195164757D02*
X193458027Y-195236185D01*
X193458027Y-195236185D02*
X193386599Y-195379042D01*
X193386599Y-195379042D02*
X193386599Y-195736185D01*
X193386599Y-195736185D02*
X193458027Y-195879042D01*
X193458027Y-195879042D02*
X193529456Y-195950471D01*
X193529456Y-195950471D02*
X193672313Y-196021900D01*
X193672313Y-196021900D02*
X193958027Y-196021900D01*
X193958027Y-196021900D02*
X194100885Y-195950471D01*
X194100885Y-195950471D02*
X194172313Y-195879042D01*
X194172313Y-195879042D02*
X194243742Y-195736185D01*
X194886598Y-196450471D02*
X194958027Y-196521900D01*
X194958027Y-196521900D02*
X194886598Y-196593328D01*
X194886598Y-196593328D02*
X194815170Y-196521900D01*
X194815170Y-196521900D02*
X194886598Y-196450471D01*
X194886598Y-196450471D02*
X194886598Y-196593328D01*
X195886599Y-195093328D02*
X196029456Y-195093328D01*
X196029456Y-195093328D02*
X196172313Y-195164757D01*
X196172313Y-195164757D02*
X196243742Y-195236185D01*
X196243742Y-195236185D02*
X196315170Y-195379042D01*
X196315170Y-195379042D02*
X196386599Y-195664757D01*
X196386599Y-195664757D02*
X196386599Y-196021900D01*
X196386599Y-196021900D02*
X196315170Y-196307614D01*
X196315170Y-196307614D02*
X196243742Y-196450471D01*
X196243742Y-196450471D02*
X196172313Y-196521900D01*
X196172313Y-196521900D02*
X196029456Y-196593328D01*
X196029456Y-196593328D02*
X195886599Y-196593328D01*
X195886599Y-196593328D02*
X195743742Y-196521900D01*
X195743742Y-196521900D02*
X195672313Y-196450471D01*
X195672313Y-196450471D02*
X195600884Y-196307614D01*
X195600884Y-196307614D02*
X195529456Y-196021900D01*
X195529456Y-196021900D02*
X195529456Y-195664757D01*
X195529456Y-195664757D02*
X195600884Y-195379042D01*
X195600884Y-195379042D02*
X195672313Y-195236185D01*
X195672313Y-195236185D02*
X195743742Y-195164757D01*
X195743742Y-195164757D02*
X195886599Y-195093328D01*
X197029455Y-196450471D02*
X197100884Y-196521900D01*
X197100884Y-196521900D02*
X197029455Y-196593328D01*
X197029455Y-196593328D02*
X196958027Y-196521900D01*
X196958027Y-196521900D02*
X197029455Y-196450471D01*
X197029455Y-196450471D02*
X197029455Y-196593328D01*
X198386599Y-195093328D02*
X198100884Y-195093328D01*
X198100884Y-195093328D02*
X197958027Y-195164757D01*
X197958027Y-195164757D02*
X197886599Y-195236185D01*
X197886599Y-195236185D02*
X197743741Y-195450471D01*
X197743741Y-195450471D02*
X197672313Y-195736185D01*
X197672313Y-195736185D02*
X197672313Y-196307614D01*
X197672313Y-196307614D02*
X197743741Y-196450471D01*
X197743741Y-196450471D02*
X197815170Y-196521900D01*
X197815170Y-196521900D02*
X197958027Y-196593328D01*
X197958027Y-196593328D02*
X198243741Y-196593328D01*
X198243741Y-196593328D02*
X198386599Y-196521900D01*
X198386599Y-196521900D02*
X198458027Y-196450471D01*
X198458027Y-196450471D02*
X198529456Y-196307614D01*
X198529456Y-196307614D02*
X198529456Y-195950471D01*
X198529456Y-195950471D02*
X198458027Y-195807614D01*
X198458027Y-195807614D02*
X198386599Y-195736185D01*
X198386599Y-195736185D02*
X198243741Y-195664757D01*
X198243741Y-195664757D02*
X197958027Y-195664757D01*
X197958027Y-195664757D02*
X197815170Y-195736185D01*
X197815170Y-195736185D02*
X197743741Y-195807614D01*
X197743741Y-195807614D02*
X197672313Y-195950471D01*
D10*
D11*
X177002200Y-191507200D02*
X285002200Y-191507200D01*
D10*
D12*
X264413853Y-193785528D02*
X263913853Y-193071242D01*
X263556710Y-193785528D02*
X263556710Y-192285528D01*
X263556710Y-192285528D02*
X264128139Y-192285528D01*
X264128139Y-192285528D02*
X264270996Y-192356957D01*
X264270996Y-192356957D02*
X264342425Y-192428385D01*
X264342425Y-192428385D02*
X264413853Y-192571242D01*
X264413853Y-192571242D02*
X264413853Y-192785528D01*
X264413853Y-192785528D02*
X264342425Y-192928385D01*
X264342425Y-192928385D02*
X264270996Y-192999814D01*
X264270996Y-192999814D02*
X264128139Y-193071242D01*
X264128139Y-193071242D02*
X263556710Y-193071242D01*
X265628139Y-193714100D02*
X265485282Y-193785528D01*
X265485282Y-193785528D02*
X265199568Y-193785528D01*
X265199568Y-193785528D02*
X265056710Y-193714100D01*
X265056710Y-193714100D02*
X264985282Y-193571242D01*
X264985282Y-193571242D02*
X264985282Y-192999814D01*
X264985282Y-192999814D02*
X265056710Y-192856957D01*
X265056710Y-192856957D02*
X265199568Y-192785528D01*
X265199568Y-192785528D02*
X265485282Y-192785528D01*
X265485282Y-192785528D02*
X265628139Y-192856957D01*
X265628139Y-192856957D02*
X265699568Y-192999814D01*
X265699568Y-192999814D02*
X265699568Y-193142671D01*
X265699568Y-193142671D02*
X264985282Y-193285528D01*
X266199567Y-192785528D02*
X266556710Y-193785528D01*
X266556710Y-193785528D02*
X266913853Y-192785528D01*
X267485281Y-193642671D02*
X267556710Y-193714100D01*
X267556710Y-193714100D02*
X267485281Y-193785528D01*
X267485281Y-193785528D02*
X267413853Y-193714100D01*
X267413853Y-193714100D02*
X267485281Y-193642671D01*
X267485281Y-193642671D02*
X267485281Y-193785528D01*
X267485281Y-192856957D02*
X267556710Y-192928385D01*
X267556710Y-192928385D02*
X267485281Y-192999814D01*
X267485281Y-192999814D02*
X267413853Y-192928385D01*
X267413853Y-192928385D02*
X267485281Y-192856957D01*
X267485281Y-192856957D02*
X267485281Y-192999814D01*
X270128139Y-193785528D02*
X269270996Y-193785528D01*
X269699567Y-193785528D02*
X269699567Y-192285528D01*
X269699567Y-192285528D02*
X269556710Y-192499814D01*
X269556710Y-192499814D02*
X269413853Y-192642671D01*
X269413853Y-192642671D02*
X269270996Y-192714100D01*
X270770995Y-193642671D02*
X270842424Y-193714100D01*
X270842424Y-193714100D02*
X270770995Y-193785528D01*
X270770995Y-193785528D02*
X270699567Y-193714100D01*
X270699567Y-193714100D02*
X270770995Y-193642671D01*
X270770995Y-193642671D02*
X270770995Y-193785528D01*
X271342424Y-192285528D02*
X272270996Y-192285528D01*
X272270996Y-192285528D02*
X271770996Y-192856957D01*
X271770996Y-192856957D02*
X271985281Y-192856957D01*
X271985281Y-192856957D02*
X272128139Y-192928385D01*
X272128139Y-192928385D02*
X272199567Y-192999814D01*
X272199567Y-192999814D02*
X272270996Y-193142671D01*
X272270996Y-193142671D02*
X272270996Y-193499814D01*
X272270996Y-193499814D02*
X272199567Y-193642671D01*
X272199567Y-193642671D02*
X272128139Y-193714100D01*
X272128139Y-193714100D02*
X271985281Y-193785528D01*
X271985281Y-193785528D02*
X271556710Y-193785528D01*
X271556710Y-193785528D02*
X271413853Y-193714100D01*
X271413853Y-193714100D02*
X271342424Y-193642671D01*
X272913852Y-193642671D02*
X272985281Y-193714100D01*
X272985281Y-193714100D02*
X272913852Y-193785528D01*
X272913852Y-193785528D02*
X272842424Y-193714100D01*
X272842424Y-193714100D02*
X272913852Y-193642671D01*
X272913852Y-193642671D02*
X272913852Y-193785528D01*
X273913853Y-192285528D02*
X274056710Y-192285528D01*
X274056710Y-192285528D02*
X274199567Y-192356957D01*
X274199567Y-192356957D02*
X274270996Y-192428385D01*
X274270996Y-192428385D02*
X274342424Y-192571242D01*
X274342424Y-192571242D02*
X274413853Y-192856957D01*
X274413853Y-192856957D02*
X274413853Y-193214100D01*
X274413853Y-193214100D02*
X274342424Y-193499814D01*
X274342424Y-193499814D02*
X274270996Y-193642671D01*
X274270996Y-193642671D02*
X274199567Y-193714100D01*
X274199567Y-193714100D02*
X274056710Y-193785528D01*
X274056710Y-193785528D02*
X273913853Y-193785528D01*
X273913853Y-193785528D02*
X273770996Y-193714100D01*
X273770996Y-193714100D02*
X273699567Y-193642671D01*
X273699567Y-193642671D02*
X273628138Y-193499814D01*
X273628138Y-193499814D02*
X273556710Y-193214100D01*
X273556710Y-193214100D02*
X273556710Y-192856957D01*
X273556710Y-192856957D02*
X273628138Y-192571242D01*
X273628138Y-192571242D02*
X273699567Y-192428385D01*
X273699567Y-192428385D02*
X273770996Y-192356957D01*
X273770996Y-192356957D02*
X273913853Y-192285528D01*
D10*
D11*
X178386598Y-193721900D02*
X178600884Y-193793328D01*
X178600884Y-193793328D02*
X178958026Y-193793328D01*
X178958026Y-193793328D02*
X179100884Y-193721900D01*
X179100884Y-193721900D02*
X179172312Y-193650471D01*
X179172312Y-193650471D02*
X179243741Y-193507614D01*
X179243741Y-193507614D02*
X179243741Y-193364757D01*
X179243741Y-193364757D02*
X179172312Y-193221900D01*
X179172312Y-193221900D02*
X179100884Y-193150471D01*
X179100884Y-193150471D02*
X178958026Y-193079042D01*
X178958026Y-193079042D02*
X178672312Y-193007614D01*
X178672312Y-193007614D02*
X178529455Y-192936185D01*
X178529455Y-192936185D02*
X178458026Y-192864757D01*
X178458026Y-192864757D02*
X178386598Y-192721900D01*
X178386598Y-192721900D02*
X178386598Y-192579042D01*
X178386598Y-192579042D02*
X178458026Y-192436185D01*
X178458026Y-192436185D02*
X178529455Y-192364757D01*
X178529455Y-192364757D02*
X178672312Y-192293328D01*
X178672312Y-192293328D02*
X179029455Y-192293328D01*
X179029455Y-192293328D02*
X179243741Y-192364757D01*
X179886597Y-193793328D02*
X179886597Y-192793328D01*
X179886597Y-192293328D02*
X179815169Y-192364757D01*
X179815169Y-192364757D02*
X179886597Y-192436185D01*
X179886597Y-192436185D02*
X179958026Y-192364757D01*
X179958026Y-192364757D02*
X179886597Y-192293328D01*
X179886597Y-192293328D02*
X179886597Y-192436185D01*
X180458026Y-192793328D02*
X181243741Y-192793328D01*
X181243741Y-192793328D02*
X180458026Y-193793328D01*
X180458026Y-193793328D02*
X181243741Y-193793328D01*
X182386598Y-193721900D02*
X182243741Y-193793328D01*
X182243741Y-193793328D02*
X181958027Y-193793328D01*
X181958027Y-193793328D02*
X181815169Y-193721900D01*
X181815169Y-193721900D02*
X181743741Y-193579042D01*
X181743741Y-193579042D02*
X181743741Y-193007614D01*
X181743741Y-193007614D02*
X181815169Y-192864757D01*
X181815169Y-192864757D02*
X181958027Y-192793328D01*
X181958027Y-192793328D02*
X182243741Y-192793328D01*
X182243741Y-192793328D02*
X182386598Y-192864757D01*
X182386598Y-192864757D02*
X182458027Y-193007614D01*
X182458027Y-193007614D02*
X182458027Y-193150471D01*
X182458027Y-193150471D02*
X181743741Y-193293328D01*
X183100883Y-193650471D02*
X183172312Y-193721900D01*
X183172312Y-193721900D02*
X183100883Y-193793328D01*
X183100883Y-193793328D02*
X183029455Y-193721900D01*
X183029455Y-193721900D02*
X183100883Y-193650471D01*
X183100883Y-193650471D02*
X183100883Y-193793328D01*
X183100883Y-192864757D02*
X183172312Y-192936185D01*
X183172312Y-192936185D02*
X183100883Y-193007614D01*
X183100883Y-193007614D02*
X183029455Y-192936185D01*
X183029455Y-192936185D02*
X183100883Y-192864757D01*
X183100883Y-192864757D02*
X183100883Y-193007614D01*
X184886598Y-193364757D02*
X185600884Y-193364757D01*
X184743741Y-193793328D02*
X185243741Y-192293328D01*
X185243741Y-192293328D02*
X185743741Y-193793328D01*
X186886598Y-192793328D02*
X186886598Y-193793328D01*
X186529455Y-192221900D02*
X186172312Y-193293328D01*
X186172312Y-193293328D02*
X187100883Y-193293328D01*
D10*
D11*
X263458026Y-196593328D02*
X263458026Y-195093328D01*
X264815170Y-196593328D02*
X264815170Y-195093328D01*
X264815170Y-196521900D02*
X264672312Y-196593328D01*
X264672312Y-196593328D02*
X264386598Y-196593328D01*
X264386598Y-196593328D02*
X264243741Y-196521900D01*
X264243741Y-196521900D02*
X264172312Y-196450471D01*
X264172312Y-196450471D02*
X264100884Y-196307614D01*
X264100884Y-196307614D02*
X264100884Y-195879042D01*
X264100884Y-195879042D02*
X264172312Y-195736185D01*
X264172312Y-195736185D02*
X264243741Y-195664757D01*
X264243741Y-195664757D02*
X264386598Y-195593328D01*
X264386598Y-195593328D02*
X264672312Y-195593328D01*
X264672312Y-195593328D02*
X264815170Y-195664757D01*
X265529455Y-196450471D02*
X265600884Y-196521900D01*
X265600884Y-196521900D02*
X265529455Y-196593328D01*
X265529455Y-196593328D02*
X265458027Y-196521900D01*
X265458027Y-196521900D02*
X265529455Y-196450471D01*
X265529455Y-196450471D02*
X265529455Y-196593328D01*
X265529455Y-195664757D02*
X265600884Y-195736185D01*
X265600884Y-195736185D02*
X265529455Y-195807614D01*
X265529455Y-195807614D02*
X265458027Y-195736185D01*
X265458027Y-195736185D02*
X265529455Y-195664757D01*
X265529455Y-195664757D02*
X265529455Y-195807614D01*
X268172313Y-196593328D02*
X267315170Y-196593328D01*
X267743741Y-196593328D02*
X267743741Y-195093328D01*
X267743741Y-195093328D02*
X267600884Y-195307614D01*
X267600884Y-195307614D02*
X267458027Y-195450471D01*
X267458027Y-195450471D02*
X267315170Y-195521900D01*
X269100884Y-195093328D02*
X269243741Y-195093328D01*
X269243741Y-195093328D02*
X269386598Y-195164757D01*
X269386598Y-195164757D02*
X269458027Y-195236185D01*
X269458027Y-195236185D02*
X269529455Y-195379042D01*
X269529455Y-195379042D02*
X269600884Y-195664757D01*
X269600884Y-195664757D02*
X269600884Y-196021900D01*
X269600884Y-196021900D02*
X269529455Y-196307614D01*
X269529455Y-196307614D02*
X269458027Y-196450471D01*
X269458027Y-196450471D02*
X269386598Y-196521900D01*
X269386598Y-196521900D02*
X269243741Y-196593328D01*
X269243741Y-196593328D02*
X269100884Y-196593328D01*
X269100884Y-196593328D02*
X268958027Y-196521900D01*
X268958027Y-196521900D02*
X268886598Y-196450471D01*
X268886598Y-196450471D02*
X268815169Y-196307614D01*
X268815169Y-196307614D02*
X268743741Y-196021900D01*
X268743741Y-196021900D02*
X268743741Y-195664757D01*
X268743741Y-195664757D02*
X268815169Y-195379042D01*
X268815169Y-195379042D02*
X268886598Y-195236185D01*
X268886598Y-195236185D02*
X268958027Y-195164757D01*
X268958027Y-195164757D02*
X269100884Y-195093328D01*
X271315169Y-195021900D02*
X270029455Y-196950471D01*
X272600884Y-196593328D02*
X271743741Y-196593328D01*
X272172312Y-196593328D02*
X272172312Y-195093328D01*
X272172312Y-195093328D02*
X272029455Y-195307614D01*
X272029455Y-195307614D02*
X271886598Y-195450471D01*
X271886598Y-195450471D02*
X271743741Y-195521900D01*
X274029455Y-196593328D02*
X273172312Y-196593328D01*
X273600883Y-196593328D02*
X273600883Y-195093328D01*
X273600883Y-195093328D02*
X273458026Y-195307614D01*
X273458026Y-195307614D02*
X273315169Y-195450471D01*
X273315169Y-195450471D02*
X273172312Y-195521900D01*
D10*
D11*
X177002200Y-187507200D02*
X285002200Y-187507200D01*
D10*
D13*
X178693928Y-188211638D02*
X179836785Y-188211638D01*
X179015357Y-190211638D02*
X179265357Y-188211638D01*
X180253452Y-190211638D02*
X180420119Y-188878304D01*
X180503452Y-188211638D02*
X180396309Y-188306876D01*
X180396309Y-188306876D02*
X180479643Y-188402114D01*
X180479643Y-188402114D02*
X180586786Y-188306876D01*
X180586786Y-188306876D02*
X180503452Y-188211638D01*
X180503452Y-188211638D02*
X180479643Y-188402114D01*
X181086786Y-188878304D02*
X181848690Y-188878304D01*
X181455833Y-188211638D02*
X181241548Y-189925923D01*
X181241548Y-189925923D02*
X181312976Y-190116400D01*
X181312976Y-190116400D02*
X181491548Y-190211638D01*
X181491548Y-190211638D02*
X181682024Y-190211638D01*
X182634405Y-190211638D02*
X182455833Y-190116400D01*
X182455833Y-190116400D02*
X182384405Y-189925923D01*
X182384405Y-189925923D02*
X182598690Y-188211638D01*
X184170119Y-190116400D02*
X183967738Y-190211638D01*
X183967738Y-190211638D02*
X183586785Y-190211638D01*
X183586785Y-190211638D02*
X183408214Y-190116400D01*
X183408214Y-190116400D02*
X183336785Y-189925923D01*
X183336785Y-189925923D02*
X183432024Y-189164019D01*
X183432024Y-189164019D02*
X183551071Y-188973542D01*
X183551071Y-188973542D02*
X183753452Y-188878304D01*
X183753452Y-188878304D02*
X184134404Y-188878304D01*
X184134404Y-188878304D02*
X184312976Y-188973542D01*
X184312976Y-188973542D02*
X184384404Y-189164019D01*
X184384404Y-189164019D02*
X184360595Y-189354495D01*
X184360595Y-189354495D02*
X183384404Y-189544971D01*
X185134405Y-190021161D02*
X185217738Y-190116400D01*
X185217738Y-190116400D02*
X185110595Y-190211638D01*
X185110595Y-190211638D02*
X185027262Y-190116400D01*
X185027262Y-190116400D02*
X185134405Y-190021161D01*
X185134405Y-190021161D02*
X185110595Y-190211638D01*
X185265357Y-188973542D02*
X185348690Y-189068780D01*
X185348690Y-189068780D02*
X185241548Y-189164019D01*
X185241548Y-189164019D02*
X185158214Y-189068780D01*
X185158214Y-189068780D02*
X185265357Y-188973542D01*
X185265357Y-188973542D02*
X185241548Y-189164019D01*
X187503453Y-190116400D02*
X187777262Y-190211638D01*
X187777262Y-190211638D02*
X188253453Y-190211638D01*
X188253453Y-190211638D02*
X188455834Y-190116400D01*
X188455834Y-190116400D02*
X188562977Y-190021161D01*
X188562977Y-190021161D02*
X188682024Y-189830685D01*
X188682024Y-189830685D02*
X188705834Y-189640209D01*
X188705834Y-189640209D02*
X188634405Y-189449733D01*
X188634405Y-189449733D02*
X188551072Y-189354495D01*
X188551072Y-189354495D02*
X188372501Y-189259257D01*
X188372501Y-189259257D02*
X188003453Y-189164019D01*
X188003453Y-189164019D02*
X187824881Y-189068780D01*
X187824881Y-189068780D02*
X187741548Y-188973542D01*
X187741548Y-188973542D02*
X187670120Y-188783066D01*
X187670120Y-188783066D02*
X187693929Y-188592590D01*
X187693929Y-188592590D02*
X187812977Y-188402114D01*
X187812977Y-188402114D02*
X187920120Y-188306876D01*
X187920120Y-188306876D02*
X188122501Y-188211638D01*
X188122501Y-188211638D02*
X188598691Y-188211638D01*
X188598691Y-188211638D02*
X188872501Y-188306876D01*
X189658215Y-188878304D02*
X189408215Y-190878304D01*
X189646310Y-188973542D02*
X189848691Y-188878304D01*
X189848691Y-188878304D02*
X190229643Y-188878304D01*
X190229643Y-188878304D02*
X190408215Y-188973542D01*
X190408215Y-188973542D02*
X190491548Y-189068780D01*
X190491548Y-189068780D02*
X190562977Y-189259257D01*
X190562977Y-189259257D02*
X190491548Y-189830685D01*
X190491548Y-189830685D02*
X190372501Y-190021161D01*
X190372501Y-190021161D02*
X190265358Y-190116400D01*
X190265358Y-190116400D02*
X190062977Y-190211638D01*
X190062977Y-190211638D02*
X189682024Y-190211638D01*
X189682024Y-190211638D02*
X189503453Y-190116400D01*
X191301072Y-190211638D02*
X191467739Y-188878304D01*
X191551072Y-188211638D02*
X191443929Y-188306876D01*
X191443929Y-188306876D02*
X191527263Y-188402114D01*
X191527263Y-188402114D02*
X191634406Y-188306876D01*
X191634406Y-188306876D02*
X191551072Y-188211638D01*
X191551072Y-188211638D02*
X191527263Y-188402114D01*
X192253453Y-190211638D02*
X192420120Y-188878304D01*
X192372501Y-189259257D02*
X192491548Y-189068780D01*
X192491548Y-189068780D02*
X192598691Y-188973542D01*
X192598691Y-188973542D02*
X192801072Y-188878304D01*
X192801072Y-188878304D02*
X192991548Y-188878304D01*
X193777263Y-190211638D02*
X193598691Y-190116400D01*
X193598691Y-190116400D02*
X193515358Y-190021161D01*
X193515358Y-190021161D02*
X193443929Y-189830685D01*
X193443929Y-189830685D02*
X193515358Y-189259257D01*
X193515358Y-189259257D02*
X193634405Y-189068780D01*
X193634405Y-189068780D02*
X193741548Y-188973542D01*
X193741548Y-188973542D02*
X193943929Y-188878304D01*
X193943929Y-188878304D02*
X194229643Y-188878304D01*
X194229643Y-188878304D02*
X194408215Y-188973542D01*
X194408215Y-188973542D02*
X194491548Y-189068780D01*
X194491548Y-189068780D02*
X194562977Y-189259257D01*
X194562977Y-189259257D02*
X194491548Y-189830685D01*
X194491548Y-189830685D02*
X194372501Y-190021161D01*
X194372501Y-190021161D02*
X194265358Y-190116400D01*
X194265358Y-190116400D02*
X194062977Y-190211638D01*
X194062977Y-190211638D02*
X193777263Y-190211638D01*
X197622501Y-189164019D02*
X197896311Y-189259257D01*
X197896311Y-189259257D02*
X197979644Y-189354495D01*
X197979644Y-189354495D02*
X198051073Y-189544971D01*
X198051073Y-189544971D02*
X198015358Y-189830685D01*
X198015358Y-189830685D02*
X197896311Y-190021161D01*
X197896311Y-190021161D02*
X197789168Y-190116400D01*
X197789168Y-190116400D02*
X197586787Y-190211638D01*
X197586787Y-190211638D02*
X196824882Y-190211638D01*
X196824882Y-190211638D02*
X197074882Y-188211638D01*
X197074882Y-188211638D02*
X197741549Y-188211638D01*
X197741549Y-188211638D02*
X197920120Y-188306876D01*
X197920120Y-188306876D02*
X198003454Y-188402114D01*
X198003454Y-188402114D02*
X198074882Y-188592590D01*
X198074882Y-188592590D02*
X198051073Y-188783066D01*
X198051073Y-188783066D02*
X197932025Y-188973542D01*
X197932025Y-188973542D02*
X197824882Y-189068780D01*
X197824882Y-189068780D02*
X197622501Y-189164019D01*
X197622501Y-189164019D02*
X196955835Y-189164019D01*
X198824882Y-190211638D02*
X198991549Y-188878304D01*
X198943930Y-189259257D02*
X199062977Y-189068780D01*
X199062977Y-189068780D02*
X199170120Y-188973542D01*
X199170120Y-188973542D02*
X199372501Y-188878304D01*
X199372501Y-188878304D02*
X199562977Y-188878304D01*
X200062977Y-190211638D02*
X200229644Y-188878304D01*
X200312977Y-188211638D02*
X200205834Y-188306876D01*
X200205834Y-188306876D02*
X200289168Y-188402114D01*
X200289168Y-188402114D02*
X200396311Y-188306876D01*
X200396311Y-188306876D02*
X200312977Y-188211638D01*
X200312977Y-188211638D02*
X200289168Y-188402114D01*
X201884406Y-190116400D02*
X201682025Y-190211638D01*
X201682025Y-190211638D02*
X201301073Y-190211638D01*
X201301073Y-190211638D02*
X201122501Y-190116400D01*
X201122501Y-190116400D02*
X201039168Y-190021161D01*
X201039168Y-190021161D02*
X200967739Y-189830685D01*
X200967739Y-189830685D02*
X201039168Y-189259257D01*
X201039168Y-189259257D02*
X201158215Y-189068780D01*
X201158215Y-189068780D02*
X201265358Y-188973542D01*
X201265358Y-188973542D02*
X201467739Y-188878304D01*
X201467739Y-188878304D02*
X201848692Y-188878304D01*
X201848692Y-188878304D02*
X202027263Y-188973542D01*
X202729644Y-190211638D02*
X202979644Y-188211638D01*
X203015359Y-189449733D02*
X203491549Y-190211638D01*
X203658216Y-188878304D02*
X202801073Y-189640209D01*
D10*
D11*
X178958026Y-185607614D02*
X178458026Y-185607614D01*
X178458026Y-186393328D02*
X178458026Y-184893328D01*
X178458026Y-184893328D02*
X179172312Y-184893328D01*
X179743740Y-186393328D02*
X179743740Y-185393328D01*
X179743740Y-184893328D02*
X179672312Y-184964757D01*
X179672312Y-184964757D02*
X179743740Y-185036185D01*
X179743740Y-185036185D02*
X179815169Y-184964757D01*
X179815169Y-184964757D02*
X179743740Y-184893328D01*
X179743740Y-184893328D02*
X179743740Y-185036185D01*
X180672312Y-186393328D02*
X180529455Y-186321900D01*
X180529455Y-186321900D02*
X180458026Y-186179042D01*
X180458026Y-186179042D02*
X180458026Y-184893328D01*
X181815169Y-186321900D02*
X181672312Y-186393328D01*
X181672312Y-186393328D02*
X181386598Y-186393328D01*
X181386598Y-186393328D02*
X181243740Y-186321900D01*
X181243740Y-186321900D02*
X181172312Y-186179042D01*
X181172312Y-186179042D02*
X181172312Y-185607614D01*
X181172312Y-185607614D02*
X181243740Y-185464757D01*
X181243740Y-185464757D02*
X181386598Y-185393328D01*
X181386598Y-185393328D02*
X181672312Y-185393328D01*
X181672312Y-185393328D02*
X181815169Y-185464757D01*
X181815169Y-185464757D02*
X181886598Y-185607614D01*
X181886598Y-185607614D02*
X181886598Y-185750471D01*
X181886598Y-185750471D02*
X181172312Y-185893328D01*
X182529454Y-186250471D02*
X182600883Y-186321900D01*
X182600883Y-186321900D02*
X182529454Y-186393328D01*
X182529454Y-186393328D02*
X182458026Y-186321900D01*
X182458026Y-186321900D02*
X182529454Y-186250471D01*
X182529454Y-186250471D02*
X182529454Y-186393328D01*
X182529454Y-185464757D02*
X182600883Y-185536185D01*
X182600883Y-185536185D02*
X182529454Y-185607614D01*
X182529454Y-185607614D02*
X182458026Y-185536185D01*
X182458026Y-185536185D02*
X182529454Y-185464757D01*
X182529454Y-185464757D02*
X182529454Y-185607614D01*
X184315169Y-186321900D02*
X184529455Y-186393328D01*
X184529455Y-186393328D02*
X184886597Y-186393328D01*
X184886597Y-186393328D02*
X185029455Y-186321900D01*
X185029455Y-186321900D02*
X185100883Y-186250471D01*
X185100883Y-186250471D02*
X185172312Y-186107614D01*
X185172312Y-186107614D02*
X185172312Y-185964757D01*
X185172312Y-185964757D02*
X185100883Y-185821900D01*
X185100883Y-185821900D02*
X185029455Y-185750471D01*
X185029455Y-185750471D02*
X184886597Y-185679042D01*
X184886597Y-185679042D02*
X184600883Y-185607614D01*
X184600883Y-185607614D02*
X184458026Y-185536185D01*
X184458026Y-185536185D02*
X184386597Y-185464757D01*
X184386597Y-185464757D02*
X184315169Y-185321900D01*
X184315169Y-185321900D02*
X184315169Y-185179042D01*
X184315169Y-185179042D02*
X184386597Y-185036185D01*
X184386597Y-185036185D02*
X184458026Y-184964757D01*
X184458026Y-184964757D02*
X184600883Y-184893328D01*
X184600883Y-184893328D02*
X184958026Y-184893328D01*
X184958026Y-184893328D02*
X185172312Y-184964757D01*
X185815168Y-185393328D02*
X185815168Y-186893328D01*
X185815168Y-185464757D02*
X185958026Y-185393328D01*
X185958026Y-185393328D02*
X186243740Y-185393328D01*
X186243740Y-185393328D02*
X186386597Y-185464757D01*
X186386597Y-185464757D02*
X186458026Y-185536185D01*
X186458026Y-185536185D02*
X186529454Y-185679042D01*
X186529454Y-185679042D02*
X186529454Y-186107614D01*
X186529454Y-186107614D02*
X186458026Y-186250471D01*
X186458026Y-186250471D02*
X186386597Y-186321900D01*
X186386597Y-186321900D02*
X186243740Y-186393328D01*
X186243740Y-186393328D02*
X185958026Y-186393328D01*
X185958026Y-186393328D02*
X185815168Y-186321900D01*
X187172311Y-186393328D02*
X187172311Y-185393328D01*
X187172311Y-184893328D02*
X187100883Y-184964757D01*
X187100883Y-184964757D02*
X187172311Y-185036185D01*
X187172311Y-185036185D02*
X187243740Y-184964757D01*
X187243740Y-184964757D02*
X187172311Y-184893328D01*
X187172311Y-184893328D02*
X187172311Y-185036185D01*
X187886597Y-186393328D02*
X187886597Y-185393328D01*
X187886597Y-185679042D02*
X187958026Y-185536185D01*
X187958026Y-185536185D02*
X188029455Y-185464757D01*
X188029455Y-185464757D02*
X188172312Y-185393328D01*
X188172312Y-185393328D02*
X188315169Y-185393328D01*
X189029454Y-186393328D02*
X188886597Y-186321900D01*
X188886597Y-186321900D02*
X188815168Y-186250471D01*
X188815168Y-186250471D02*
X188743740Y-186107614D01*
X188743740Y-186107614D02*
X188743740Y-185679042D01*
X188743740Y-185679042D02*
X188815168Y-185536185D01*
X188815168Y-185536185D02*
X188886597Y-185464757D01*
X188886597Y-185464757D02*
X189029454Y-185393328D01*
X189029454Y-185393328D02*
X189243740Y-185393328D01*
X189243740Y-185393328D02*
X189386597Y-185464757D01*
X189386597Y-185464757D02*
X189458026Y-185536185D01*
X189458026Y-185536185D02*
X189529454Y-185679042D01*
X189529454Y-185679042D02*
X189529454Y-186107614D01*
X189529454Y-186107614D02*
X189458026Y-186250471D01*
X189458026Y-186250471D02*
X189386597Y-186321900D01*
X189386597Y-186321900D02*
X189243740Y-186393328D01*
X189243740Y-186393328D02*
X189029454Y-186393328D01*
X189815169Y-186536185D02*
X190958026Y-186536185D01*
X191815168Y-185607614D02*
X192029454Y-185679042D01*
X192029454Y-185679042D02*
X192100883Y-185750471D01*
X192100883Y-185750471D02*
X192172311Y-185893328D01*
X192172311Y-185893328D02*
X192172311Y-186107614D01*
X192172311Y-186107614D02*
X192100883Y-186250471D01*
X192100883Y-186250471D02*
X192029454Y-186321900D01*
X192029454Y-186321900D02*
X191886597Y-186393328D01*
X191886597Y-186393328D02*
X191315168Y-186393328D01*
X191315168Y-186393328D02*
X191315168Y-184893328D01*
X191315168Y-184893328D02*
X191815168Y-184893328D01*
X191815168Y-184893328D02*
X191958026Y-184964757D01*
X191958026Y-184964757D02*
X192029454Y-185036185D01*
X192029454Y-185036185D02*
X192100883Y-185179042D01*
X192100883Y-185179042D02*
X192100883Y-185321900D01*
X192100883Y-185321900D02*
X192029454Y-185464757D01*
X192029454Y-185464757D02*
X191958026Y-185536185D01*
X191958026Y-185536185D02*
X191815168Y-185607614D01*
X191815168Y-185607614D02*
X191315168Y-185607614D01*
X192815168Y-186393328D02*
X192815168Y-185393328D01*
X192815168Y-185679042D02*
X192886597Y-185536185D01*
X192886597Y-185536185D02*
X192958026Y-185464757D01*
X192958026Y-185464757D02*
X193100883Y-185393328D01*
X193100883Y-185393328D02*
X193243740Y-185393328D01*
X193743739Y-186393328D02*
X193743739Y-185393328D01*
X193743739Y-184893328D02*
X193672311Y-184964757D01*
X193672311Y-184964757D02*
X193743739Y-185036185D01*
X193743739Y-185036185D02*
X193815168Y-184964757D01*
X193815168Y-184964757D02*
X193743739Y-184893328D01*
X193743739Y-184893328D02*
X193743739Y-185036185D01*
X195100883Y-186321900D02*
X194958025Y-186393328D01*
X194958025Y-186393328D02*
X194672311Y-186393328D01*
X194672311Y-186393328D02*
X194529454Y-186321900D01*
X194529454Y-186321900D02*
X194458025Y-186250471D01*
X194458025Y-186250471D02*
X194386597Y-186107614D01*
X194386597Y-186107614D02*
X194386597Y-185679042D01*
X194386597Y-185679042D02*
X194458025Y-185536185D01*
X194458025Y-185536185D02*
X194529454Y-185464757D01*
X194529454Y-185464757D02*
X194672311Y-185393328D01*
X194672311Y-185393328D02*
X194958025Y-185393328D01*
X194958025Y-185393328D02*
X195100883Y-185464757D01*
X195743739Y-186393328D02*
X195743739Y-184893328D01*
X195886597Y-185821900D02*
X196315168Y-186393328D01*
X196315168Y-185393328D02*
X195743739Y-185964757D01*
X196958025Y-186250471D02*
X197029454Y-186321900D01*
X197029454Y-186321900D02*
X196958025Y-186393328D01*
X196958025Y-186393328D02*
X196886597Y-186321900D01*
X196886597Y-186321900D02*
X196958025Y-186250471D01*
X196958025Y-186250471D02*
X196958025Y-186393328D01*
X197672311Y-186393328D02*
X197672311Y-184893328D01*
X197815169Y-185821900D02*
X198243740Y-186393328D01*
X198243740Y-185393328D02*
X197672311Y-185964757D01*
X198886597Y-186393328D02*
X198886597Y-185393328D01*
X198886597Y-184893328D02*
X198815169Y-184964757D01*
X198815169Y-184964757D02*
X198886597Y-185036185D01*
X198886597Y-185036185D02*
X198958026Y-184964757D01*
X198958026Y-184964757D02*
X198886597Y-184893328D01*
X198886597Y-184893328D02*
X198886597Y-185036185D01*
X200243741Y-186321900D02*
X200100883Y-186393328D01*
X200100883Y-186393328D02*
X199815169Y-186393328D01*
X199815169Y-186393328D02*
X199672312Y-186321900D01*
X199672312Y-186321900D02*
X199600883Y-186250471D01*
X199600883Y-186250471D02*
X199529455Y-186107614D01*
X199529455Y-186107614D02*
X199529455Y-185679042D01*
X199529455Y-185679042D02*
X199600883Y-185536185D01*
X199600883Y-185536185D02*
X199672312Y-185464757D01*
X199672312Y-185464757D02*
X199815169Y-185393328D01*
X199815169Y-185393328D02*
X200100883Y-185393328D01*
X200100883Y-185393328D02*
X200243741Y-185464757D01*
X201529455Y-186393328D02*
X201529455Y-185607614D01*
X201529455Y-185607614D02*
X201458026Y-185464757D01*
X201458026Y-185464757D02*
X201315169Y-185393328D01*
X201315169Y-185393328D02*
X201029455Y-185393328D01*
X201029455Y-185393328D02*
X200886597Y-185464757D01*
X201529455Y-186321900D02*
X201386597Y-186393328D01*
X201386597Y-186393328D02*
X201029455Y-186393328D01*
X201029455Y-186393328D02*
X200886597Y-186321900D01*
X200886597Y-186321900D02*
X200815169Y-186179042D01*
X200815169Y-186179042D02*
X200815169Y-186036185D01*
X200815169Y-186036185D02*
X200886597Y-185893328D01*
X200886597Y-185893328D02*
X201029455Y-185821900D01*
X201029455Y-185821900D02*
X201386597Y-185821900D01*
X201386597Y-185821900D02*
X201529455Y-185750471D01*
X202886598Y-186393328D02*
X202886598Y-184893328D01*
X202886598Y-186321900D02*
X202743740Y-186393328D01*
X202743740Y-186393328D02*
X202458026Y-186393328D01*
X202458026Y-186393328D02*
X202315169Y-186321900D01*
X202315169Y-186321900D02*
X202243740Y-186250471D01*
X202243740Y-186250471D02*
X202172312Y-186107614D01*
X202172312Y-186107614D02*
X202172312Y-185679042D01*
X202172312Y-185679042D02*
X202243740Y-185536185D01*
X202243740Y-185536185D02*
X202315169Y-185464757D01*
X202315169Y-185464757D02*
X202458026Y-185393328D01*
X202458026Y-185393328D02*
X202743740Y-185393328D01*
X202743740Y-185393328D02*
X202886598Y-185464757D01*
X203243741Y-186536185D02*
X204386598Y-186536185D01*
X204743740Y-185393328D02*
X204743740Y-186893328D01*
X204743740Y-185464757D02*
X204886598Y-185393328D01*
X204886598Y-185393328D02*
X205172312Y-185393328D01*
X205172312Y-185393328D02*
X205315169Y-185464757D01*
X205315169Y-185464757D02*
X205386598Y-185536185D01*
X205386598Y-185536185D02*
X205458026Y-185679042D01*
X205458026Y-185679042D02*
X205458026Y-186107614D01*
X205458026Y-186107614D02*
X205386598Y-186250471D01*
X205386598Y-186250471D02*
X205315169Y-186321900D01*
X205315169Y-186321900D02*
X205172312Y-186393328D01*
X205172312Y-186393328D02*
X204886598Y-186393328D01*
X204886598Y-186393328D02*
X204743740Y-186321900D01*
X206743741Y-186321900D02*
X206600883Y-186393328D01*
X206600883Y-186393328D02*
X206315169Y-186393328D01*
X206315169Y-186393328D02*
X206172312Y-186321900D01*
X206172312Y-186321900D02*
X206100883Y-186250471D01*
X206100883Y-186250471D02*
X206029455Y-186107614D01*
X206029455Y-186107614D02*
X206029455Y-185679042D01*
X206029455Y-185679042D02*
X206100883Y-185536185D01*
X206100883Y-185536185D02*
X206172312Y-185464757D01*
X206172312Y-185464757D02*
X206315169Y-185393328D01*
X206315169Y-185393328D02*
X206600883Y-185393328D01*
X206600883Y-185393328D02*
X206743741Y-185464757D01*
X207386597Y-186393328D02*
X207386597Y-184893328D01*
X207386597Y-185464757D02*
X207529455Y-185393328D01*
X207529455Y-185393328D02*
X207815169Y-185393328D01*
X207815169Y-185393328D02*
X207958026Y-185464757D01*
X207958026Y-185464757D02*
X208029455Y-185536185D01*
X208029455Y-185536185D02*
X208100883Y-185679042D01*
X208100883Y-185679042D02*
X208100883Y-186107614D01*
X208100883Y-186107614D02*
X208029455Y-186250471D01*
X208029455Y-186250471D02*
X207958026Y-186321900D01*
X207958026Y-186321900D02*
X207815169Y-186393328D01*
X207815169Y-186393328D02*
X207529455Y-186393328D01*
X207529455Y-186393328D02*
X207386597Y-186321900D01*
D10*
D11*
X177002200Y-181507200D02*
X285002200Y-181507200D01*
D10*
D11*
X178386598Y-183621900D02*
X178600884Y-183693328D01*
X178600884Y-183693328D02*
X178958026Y-183693328D01*
X178958026Y-183693328D02*
X179100884Y-183621900D01*
X179100884Y-183621900D02*
X179172312Y-183550471D01*
X179172312Y-183550471D02*
X179243741Y-183407614D01*
X179243741Y-183407614D02*
X179243741Y-183264757D01*
X179243741Y-183264757D02*
X179172312Y-183121900D01*
X179172312Y-183121900D02*
X179100884Y-183050471D01*
X179100884Y-183050471D02*
X178958026Y-182979042D01*
X178958026Y-182979042D02*
X178672312Y-182907614D01*
X178672312Y-182907614D02*
X178529455Y-182836185D01*
X178529455Y-182836185D02*
X178458026Y-182764757D01*
X178458026Y-182764757D02*
X178386598Y-182621900D01*
X178386598Y-182621900D02*
X178386598Y-182479042D01*
X178386598Y-182479042D02*
X178458026Y-182336185D01*
X178458026Y-182336185D02*
X178529455Y-182264757D01*
X178529455Y-182264757D02*
X178672312Y-182193328D01*
X178672312Y-182193328D02*
X179029455Y-182193328D01*
X179029455Y-182193328D02*
X179243741Y-182264757D01*
X179886597Y-183693328D02*
X179886597Y-182193328D01*
X180529455Y-183693328D02*
X180529455Y-182907614D01*
X180529455Y-182907614D02*
X180458026Y-182764757D01*
X180458026Y-182764757D02*
X180315169Y-182693328D01*
X180315169Y-182693328D02*
X180100883Y-182693328D01*
X180100883Y-182693328D02*
X179958026Y-182764757D01*
X179958026Y-182764757D02*
X179886597Y-182836185D01*
X181815169Y-183621900D02*
X181672312Y-183693328D01*
X181672312Y-183693328D02*
X181386598Y-183693328D01*
X181386598Y-183693328D02*
X181243740Y-183621900D01*
X181243740Y-183621900D02*
X181172312Y-183479042D01*
X181172312Y-183479042D02*
X181172312Y-182907614D01*
X181172312Y-182907614D02*
X181243740Y-182764757D01*
X181243740Y-182764757D02*
X181386598Y-182693328D01*
X181386598Y-182693328D02*
X181672312Y-182693328D01*
X181672312Y-182693328D02*
X181815169Y-182764757D01*
X181815169Y-182764757D02*
X181886598Y-182907614D01*
X181886598Y-182907614D02*
X181886598Y-183050471D01*
X181886598Y-183050471D02*
X181172312Y-183193328D01*
X183100883Y-183621900D02*
X182958026Y-183693328D01*
X182958026Y-183693328D02*
X182672312Y-183693328D01*
X182672312Y-183693328D02*
X182529454Y-183621900D01*
X182529454Y-183621900D02*
X182458026Y-183479042D01*
X182458026Y-183479042D02*
X182458026Y-182907614D01*
X182458026Y-182907614D02*
X182529454Y-182764757D01*
X182529454Y-182764757D02*
X182672312Y-182693328D01*
X182672312Y-182693328D02*
X182958026Y-182693328D01*
X182958026Y-182693328D02*
X183100883Y-182764757D01*
X183100883Y-182764757D02*
X183172312Y-182907614D01*
X183172312Y-182907614D02*
X183172312Y-183050471D01*
X183172312Y-183050471D02*
X182458026Y-183193328D01*
X183600883Y-182693328D02*
X184172311Y-182693328D01*
X183815168Y-182193328D02*
X183815168Y-183479042D01*
X183815168Y-183479042D02*
X183886597Y-183621900D01*
X183886597Y-183621900D02*
X184029454Y-183693328D01*
X184029454Y-183693328D02*
X184172311Y-183693328D01*
X184672311Y-183550471D02*
X184743740Y-183621900D01*
X184743740Y-183621900D02*
X184672311Y-183693328D01*
X184672311Y-183693328D02*
X184600883Y-183621900D01*
X184600883Y-183621900D02*
X184672311Y-183550471D01*
X184672311Y-183550471D02*
X184672311Y-183693328D01*
X184672311Y-182764757D02*
X184743740Y-182836185D01*
X184743740Y-182836185D02*
X184672311Y-182907614D01*
X184672311Y-182907614D02*
X184600883Y-182836185D01*
X184600883Y-182836185D02*
X184672311Y-182764757D01*
X184672311Y-182764757D02*
X184672311Y-182907614D01*
D10*
D11*
X178458026Y-176193328D02*
X178458026Y-177407614D01*
X178458026Y-177407614D02*
X178529455Y-177550471D01*
X178529455Y-177550471D02*
X178600884Y-177621900D01*
X178600884Y-177621900D02*
X178743741Y-177693328D01*
X178743741Y-177693328D02*
X179029455Y-177693328D01*
X179029455Y-177693328D02*
X179172312Y-177621900D01*
X179172312Y-177621900D02*
X179243741Y-177550471D01*
X179243741Y-177550471D02*
X179315169Y-177407614D01*
X179315169Y-177407614D02*
X179315169Y-176193328D01*
X180029455Y-177693328D02*
X180029455Y-176693328D01*
X180029455Y-176979042D02*
X180100884Y-176836185D01*
X180100884Y-176836185D02*
X180172313Y-176764757D01*
X180172313Y-176764757D02*
X180315170Y-176693328D01*
X180315170Y-176693328D02*
X180458027Y-176693328D01*
X180886598Y-177621900D02*
X181029455Y-177693328D01*
X181029455Y-177693328D02*
X181315169Y-177693328D01*
X181315169Y-177693328D02*
X181458026Y-177621900D01*
X181458026Y-177621900D02*
X181529455Y-177479042D01*
X181529455Y-177479042D02*
X181529455Y-177407614D01*
X181529455Y-177407614D02*
X181458026Y-177264757D01*
X181458026Y-177264757D02*
X181315169Y-177193328D01*
X181315169Y-177193328D02*
X181100884Y-177193328D01*
X181100884Y-177193328D02*
X180958026Y-177121900D01*
X180958026Y-177121900D02*
X180886598Y-176979042D01*
X180886598Y-176979042D02*
X180886598Y-176907614D01*
X180886598Y-176907614D02*
X180958026Y-176764757D01*
X180958026Y-176764757D02*
X181100884Y-176693328D01*
X181100884Y-176693328D02*
X181315169Y-176693328D01*
X181315169Y-176693328D02*
X181458026Y-176764757D01*
X183315169Y-176193328D02*
X183315169Y-177407614D01*
X183315169Y-177407614D02*
X183386598Y-177550471D01*
X183386598Y-177550471D02*
X183458027Y-177621900D01*
X183458027Y-177621900D02*
X183600884Y-177693328D01*
X183600884Y-177693328D02*
X183886598Y-177693328D01*
X183886598Y-177693328D02*
X184029455Y-177621900D01*
X184029455Y-177621900D02*
X184100884Y-177550471D01*
X184100884Y-177550471D02*
X184172312Y-177407614D01*
X184172312Y-177407614D02*
X184172312Y-176193328D01*
X184672313Y-176693328D02*
X185243741Y-176693328D01*
X184886598Y-176193328D02*
X184886598Y-177479042D01*
X184886598Y-177479042D02*
X184958027Y-177621900D01*
X184958027Y-177621900D02*
X185100884Y-177693328D01*
X185100884Y-177693328D02*
X185243741Y-177693328D01*
X185600884Y-176693328D02*
X186386599Y-176693328D01*
X186386599Y-176693328D02*
X185600884Y-177693328D01*
X185600884Y-177693328D02*
X186386599Y-177693328D01*
X186958027Y-177693328D02*
X186958027Y-176693328D01*
X186958027Y-176193328D02*
X186886599Y-176264757D01*
X186886599Y-176264757D02*
X186958027Y-176336185D01*
X186958027Y-176336185D02*
X187029456Y-176264757D01*
X187029456Y-176264757D02*
X186958027Y-176193328D01*
X186958027Y-176193328D02*
X186958027Y-176336185D01*
X187672313Y-176693328D02*
X187672313Y-177693328D01*
X187672313Y-176836185D02*
X187743742Y-176764757D01*
X187743742Y-176764757D02*
X187886599Y-176693328D01*
X187886599Y-176693328D02*
X188100885Y-176693328D01*
X188100885Y-176693328D02*
X188243742Y-176764757D01*
X188243742Y-176764757D02*
X188315171Y-176907614D01*
X188315171Y-176907614D02*
X188315171Y-177693328D01*
X189672314Y-176693328D02*
X189672314Y-177907614D01*
X189672314Y-177907614D02*
X189600885Y-178050471D01*
X189600885Y-178050471D02*
X189529456Y-178121900D01*
X189529456Y-178121900D02*
X189386599Y-178193328D01*
X189386599Y-178193328D02*
X189172314Y-178193328D01*
X189172314Y-178193328D02*
X189029456Y-178121900D01*
X189672314Y-177621900D02*
X189529456Y-177693328D01*
X189529456Y-177693328D02*
X189243742Y-177693328D01*
X189243742Y-177693328D02*
X189100885Y-177621900D01*
X189100885Y-177621900D02*
X189029456Y-177550471D01*
X189029456Y-177550471D02*
X188958028Y-177407614D01*
X188958028Y-177407614D02*
X188958028Y-176979042D01*
X188958028Y-176979042D02*
X189029456Y-176836185D01*
X189029456Y-176836185D02*
X189100885Y-176764757D01*
X189100885Y-176764757D02*
X189243742Y-176693328D01*
X189243742Y-176693328D02*
X189529456Y-176693328D01*
X189529456Y-176693328D02*
X189672314Y-176764757D01*
X190958028Y-177621900D02*
X190815171Y-177693328D01*
X190815171Y-177693328D02*
X190529457Y-177693328D01*
X190529457Y-177693328D02*
X190386599Y-177621900D01*
X190386599Y-177621900D02*
X190315171Y-177479042D01*
X190315171Y-177479042D02*
X190315171Y-176907614D01*
X190315171Y-176907614D02*
X190386599Y-176764757D01*
X190386599Y-176764757D02*
X190529457Y-176693328D01*
X190529457Y-176693328D02*
X190815171Y-176693328D01*
X190815171Y-176693328D02*
X190958028Y-176764757D01*
X190958028Y-176764757D02*
X191029457Y-176907614D01*
X191029457Y-176907614D02*
X191029457Y-177050471D01*
X191029457Y-177050471D02*
X190315171Y-177193328D01*
X191672313Y-177693328D02*
X191672313Y-176693328D01*
X191672313Y-176979042D02*
X191743742Y-176836185D01*
X191743742Y-176836185D02*
X191815171Y-176764757D01*
X191815171Y-176764757D02*
X191958028Y-176693328D01*
X191958028Y-176693328D02*
X192100885Y-176693328D01*
D10*
D11*
X178458026Y-174693328D02*
X178458026Y-173193328D01*
X178458026Y-173193328D02*
X178958026Y-174264757D01*
X178958026Y-174264757D02*
X179458026Y-173193328D01*
X179458026Y-173193328D02*
X179458026Y-174693328D01*
X180386598Y-174693328D02*
X180243741Y-174621900D01*
X180243741Y-174621900D02*
X180172312Y-174550471D01*
X180172312Y-174550471D02*
X180100884Y-174407614D01*
X180100884Y-174407614D02*
X180100884Y-173979042D01*
X180100884Y-173979042D02*
X180172312Y-173836185D01*
X180172312Y-173836185D02*
X180243741Y-173764757D01*
X180243741Y-173764757D02*
X180386598Y-173693328D01*
X180386598Y-173693328D02*
X180600884Y-173693328D01*
X180600884Y-173693328D02*
X180743741Y-173764757D01*
X180743741Y-173764757D02*
X180815170Y-173836185D01*
X180815170Y-173836185D02*
X180886598Y-173979042D01*
X180886598Y-173979042D02*
X180886598Y-174407614D01*
X180886598Y-174407614D02*
X180815170Y-174550471D01*
X180815170Y-174550471D02*
X180743741Y-174621900D01*
X180743741Y-174621900D02*
X180600884Y-174693328D01*
X180600884Y-174693328D02*
X180386598Y-174693328D01*
X181529455Y-174693328D02*
X181529455Y-173193328D01*
X182172313Y-174693328D02*
X182172313Y-173907614D01*
X182172313Y-173907614D02*
X182100884Y-173764757D01*
X182100884Y-173764757D02*
X181958027Y-173693328D01*
X181958027Y-173693328D02*
X181743741Y-173693328D01*
X181743741Y-173693328D02*
X181600884Y-173764757D01*
X181600884Y-173764757D02*
X181529455Y-173836185D01*
X183529456Y-174693328D02*
X183529456Y-173907614D01*
X183529456Y-173907614D02*
X183458027Y-173764757D01*
X183458027Y-173764757D02*
X183315170Y-173693328D01*
X183315170Y-173693328D02*
X183029456Y-173693328D01*
X183029456Y-173693328D02*
X182886598Y-173764757D01*
X183529456Y-174621900D02*
X183386598Y-174693328D01*
X183386598Y-174693328D02*
X183029456Y-174693328D01*
X183029456Y-174693328D02*
X182886598Y-174621900D01*
X182886598Y-174621900D02*
X182815170Y-174479042D01*
X182815170Y-174479042D02*
X182815170Y-174336185D01*
X182815170Y-174336185D02*
X182886598Y-174193328D01*
X182886598Y-174193328D02*
X183029456Y-174121900D01*
X183029456Y-174121900D02*
X183386598Y-174121900D01*
X183386598Y-174121900D02*
X183529456Y-174050471D01*
X184243741Y-174693328D02*
X184243741Y-173693328D01*
X184243741Y-173836185D02*
X184315170Y-173764757D01*
X184315170Y-173764757D02*
X184458027Y-173693328D01*
X184458027Y-173693328D02*
X184672313Y-173693328D01*
X184672313Y-173693328D02*
X184815170Y-173764757D01*
X184815170Y-173764757D02*
X184886599Y-173907614D01*
X184886599Y-173907614D02*
X184886599Y-174693328D01*
X184886599Y-173907614D02*
X184958027Y-173764757D01*
X184958027Y-173764757D02*
X185100884Y-173693328D01*
X185100884Y-173693328D02*
X185315170Y-173693328D01*
X185315170Y-173693328D02*
X185458027Y-173764757D01*
X185458027Y-173764757D02*
X185529456Y-173907614D01*
X185529456Y-173907614D02*
X185529456Y-174693328D01*
X186243741Y-174693328D02*
X186243741Y-173693328D01*
X186243741Y-173836185D02*
X186315170Y-173764757D01*
X186315170Y-173764757D02*
X186458027Y-173693328D01*
X186458027Y-173693328D02*
X186672313Y-173693328D01*
X186672313Y-173693328D02*
X186815170Y-173764757D01*
X186815170Y-173764757D02*
X186886599Y-173907614D01*
X186886599Y-173907614D02*
X186886599Y-174693328D01*
X186886599Y-173907614D02*
X186958027Y-173764757D01*
X186958027Y-173764757D02*
X187100884Y-173693328D01*
X187100884Y-173693328D02*
X187315170Y-173693328D01*
X187315170Y-173693328D02*
X187458027Y-173764757D01*
X187458027Y-173764757D02*
X187529456Y-173907614D01*
X187529456Y-173907614D02*
X187529456Y-174693328D01*
X188815170Y-174621900D02*
X188672313Y-174693328D01*
X188672313Y-174693328D02*
X188386599Y-174693328D01*
X188386599Y-174693328D02*
X188243741Y-174621900D01*
X188243741Y-174621900D02*
X188172313Y-174479042D01*
X188172313Y-174479042D02*
X188172313Y-173907614D01*
X188172313Y-173907614D02*
X188243741Y-173764757D01*
X188243741Y-173764757D02*
X188386599Y-173693328D01*
X188386599Y-173693328D02*
X188672313Y-173693328D01*
X188672313Y-173693328D02*
X188815170Y-173764757D01*
X188815170Y-173764757D02*
X188886599Y-173907614D01*
X188886599Y-173907614D02*
X188886599Y-174050471D01*
X188886599Y-174050471D02*
X188172313Y-174193328D01*
X190172313Y-174693328D02*
X190172313Y-173193328D01*
X190172313Y-174621900D02*
X190029455Y-174693328D01*
X190029455Y-174693328D02*
X189743741Y-174693328D01*
X189743741Y-174693328D02*
X189600884Y-174621900D01*
X189600884Y-174621900D02*
X189529455Y-174550471D01*
X189529455Y-174550471D02*
X189458027Y-174407614D01*
X189458027Y-174407614D02*
X189458027Y-173979042D01*
X189458027Y-173979042D02*
X189529455Y-173836185D01*
X189529455Y-173836185D02*
X189600884Y-173764757D01*
X189600884Y-173764757D02*
X189743741Y-173693328D01*
X189743741Y-173693328D02*
X190029455Y-173693328D01*
X190029455Y-173693328D02*
X190172313Y-173764757D01*
X191815170Y-173193328D02*
X192672313Y-173193328D01*
X192243741Y-174693328D02*
X192243741Y-173193328D01*
X194243741Y-174264757D02*
X194958027Y-174264757D01*
X194100884Y-174693328D02*
X194600884Y-173193328D01*
X194600884Y-173193328D02*
X195100884Y-174693328D01*
X195815169Y-174693328D02*
X195672312Y-174621900D01*
X195672312Y-174621900D02*
X195600883Y-174479042D01*
X195600883Y-174479042D02*
X195600883Y-173193328D01*
X196172312Y-173693328D02*
X196743740Y-173693328D01*
X196386597Y-173193328D02*
X196386597Y-174479042D01*
X196386597Y-174479042D02*
X196458026Y-174621900D01*
X196458026Y-174621900D02*
X196600883Y-174693328D01*
X196600883Y-174693328D02*
X196743740Y-174693328D01*
X197815169Y-174621900D02*
X197672312Y-174693328D01*
X197672312Y-174693328D02*
X197386598Y-174693328D01*
X197386598Y-174693328D02*
X197243740Y-174621900D01*
X197243740Y-174621900D02*
X197172312Y-174479042D01*
X197172312Y-174479042D02*
X197172312Y-173907614D01*
X197172312Y-173907614D02*
X197243740Y-173764757D01*
X197243740Y-173764757D02*
X197386598Y-173693328D01*
X197386598Y-173693328D02*
X197672312Y-173693328D01*
X197672312Y-173693328D02*
X197815169Y-173764757D01*
X197815169Y-173764757D02*
X197886598Y-173907614D01*
X197886598Y-173907614D02*
X197886598Y-174050471D01*
X197886598Y-174050471D02*
X197172312Y-174193328D01*
X198529454Y-174693328D02*
X198529454Y-173193328D01*
X198672312Y-174121900D02*
X199100883Y-174693328D01*
X199100883Y-173693328D02*
X198529454Y-174264757D01*
X199743740Y-174693328D02*
X199743740Y-173693328D01*
X199743740Y-173979042D02*
X199815169Y-173836185D01*
X199815169Y-173836185D02*
X199886598Y-173764757D01*
X199886598Y-173764757D02*
X200029455Y-173693328D01*
X200029455Y-173693328D02*
X200172312Y-173693328D01*
X201243740Y-174621900D02*
X201100883Y-174693328D01*
X201100883Y-174693328D02*
X200815169Y-174693328D01*
X200815169Y-174693328D02*
X200672311Y-174621900D01*
X200672311Y-174621900D02*
X200600883Y-174479042D01*
X200600883Y-174479042D02*
X200600883Y-173907614D01*
X200600883Y-173907614D02*
X200672311Y-173764757D01*
X200672311Y-173764757D02*
X200815169Y-173693328D01*
X200815169Y-173693328D02*
X201100883Y-173693328D01*
X201100883Y-173693328D02*
X201243740Y-173764757D01*
X201243740Y-173764757D02*
X201315169Y-173907614D01*
X201315169Y-173907614D02*
X201315169Y-174050471D01*
X201315169Y-174050471D02*
X200600883Y-174193328D01*
X202529454Y-174621900D02*
X202386597Y-174693328D01*
X202386597Y-174693328D02*
X202100883Y-174693328D01*
X202100883Y-174693328D02*
X201958025Y-174621900D01*
X201958025Y-174621900D02*
X201886597Y-174479042D01*
X201886597Y-174479042D02*
X201886597Y-173907614D01*
X201886597Y-173907614D02*
X201958025Y-173764757D01*
X201958025Y-173764757D02*
X202100883Y-173693328D01*
X202100883Y-173693328D02*
X202386597Y-173693328D01*
X202386597Y-173693328D02*
X202529454Y-173764757D01*
X202529454Y-173764757D02*
X202600883Y-173907614D01*
X202600883Y-173907614D02*
X202600883Y-174050471D01*
X202600883Y-174050471D02*
X201886597Y-174193328D01*
X203029454Y-173693328D02*
X203600882Y-173693328D01*
X203243739Y-173193328D02*
X203243739Y-174479042D01*
X203243739Y-174479042D02*
X203315168Y-174621900D01*
X203315168Y-174621900D02*
X203458025Y-174693328D01*
X203458025Y-174693328D02*
X203600882Y-174693328D01*
X204100882Y-174693328D02*
X204100882Y-173693328D01*
X204100882Y-173193328D02*
X204029454Y-173264757D01*
X204029454Y-173264757D02*
X204100882Y-173336185D01*
X204100882Y-173336185D02*
X204172311Y-173264757D01*
X204172311Y-173264757D02*
X204100882Y-173193328D01*
X204100882Y-173193328D02*
X204100882Y-173336185D01*
D10*
D11*
X197002200Y-191507200D02*
X197002200Y-194507200D01*
D10*
D11*
X261002200Y-191507200D02*
X261002200Y-198007200D01*
X13044819Y-65999999D02*
X13044819Y-66190475D01*
X13044819Y-66190475D02*
X13092438Y-66285713D01*
X13092438Y-66285713D02*
X13140057Y-66333332D01*
X13140057Y-66333332D02*
X13282914Y-66428570D01*
X13282914Y-66428570D02*
X13473390Y-66476189D01*
X13473390Y-66476189D02*
X13854342Y-66476189D01*
X13854342Y-66476189D02*
X13949580Y-66428570D01*
X13949580Y-66428570D02*
X13997200Y-66380951D01*
X13997200Y-66380951D02*
X14044819Y-66285713D01*
X14044819Y-66285713D02*
X14044819Y-66095237D01*
X14044819Y-66095237D02*
X13997200Y-65999999D01*
X13997200Y-65999999D02*
X13949580Y-65952380D01*
X13949580Y-65952380D02*
X13854342Y-65904761D01*
X13854342Y-65904761D02*
X13616247Y-65904761D01*
X13616247Y-65904761D02*
X13521009Y-65952380D01*
X13521009Y-65952380D02*
X13473390Y-65999999D01*
X13473390Y-65999999D02*
X13425771Y-66095237D01*
X13425771Y-66095237D02*
X13425771Y-66285713D01*
X13425771Y-66285713D02*
X13473390Y-66380951D01*
X13473390Y-66380951D02*
X13521009Y-66428570D01*
X13521009Y-66428570D02*
X13616247Y-66476189D01*
X13140057Y-65523808D02*
X13092438Y-65476189D01*
X13092438Y-65476189D02*
X13044819Y-65380951D01*
X13044819Y-65380951D02*
X13044819Y-65142856D01*
X13044819Y-65142856D02*
X13092438Y-65047618D01*
X13092438Y-65047618D02*
X13140057Y-64999999D01*
X13140057Y-64999999D02*
X13235295Y-64952380D01*
X13235295Y-64952380D02*
X13330533Y-64952380D01*
X13330533Y-64952380D02*
X13473390Y-64999999D01*
X13473390Y-64999999D02*
X14044819Y-65571427D01*
X14044819Y-65571427D02*
X14044819Y-64952380D01*
X13949580Y-64523808D02*
X13997200Y-64476189D01*
X13997200Y-64476189D02*
X14044819Y-64523808D01*
X14044819Y-64523808D02*
X13997200Y-64571427D01*
X13997200Y-64571427D02*
X13949580Y-64523808D01*
X13949580Y-64523808D02*
X14044819Y-64523808D01*
X13044819Y-63571428D02*
X13044819Y-64047618D01*
X13044819Y-64047618D02*
X13521009Y-64095237D01*
X13521009Y-64095237D02*
X13473390Y-64047618D01*
X13473390Y-64047618D02*
X13425771Y-63952380D01*
X13425771Y-63952380D02*
X13425771Y-63714285D01*
X13425771Y-63714285D02*
X13473390Y-63619047D01*
X13473390Y-63619047D02*
X13521009Y-63571428D01*
X13521009Y-63571428D02*
X13616247Y-63523809D01*
X13616247Y-63523809D02*
X13854342Y-63523809D01*
X13854342Y-63523809D02*
X13949580Y-63571428D01*
X13949580Y-63571428D02*
X13997200Y-63619047D01*
X13997200Y-63619047D02*
X14044819Y-63714285D01*
X14044819Y-63714285D02*
X14044819Y-63952380D01*
X14044819Y-63952380D02*
X13997200Y-64047618D01*
X13997200Y-64047618D02*
X13949580Y-64095237D01*
D10*
X23250000Y-33750000D02*
X14153580Y-33750000D01*
X14153580Y-96250000D02*
X23250000Y-96250000D01*
X14740000Y-33750000D02*
X14740000Y-96250000D01*
X14740000Y-33750000D02*
X15326421Y-34876504D01*
X14740000Y-33750000D02*
X14153579Y-34876504D01*
X14740000Y-96250000D02*
X14153579Y-95123496D01*
X14740000Y-96250000D02*
X15326421Y-95123496D01*
D11*
X53989995Y-101604819D02*
X53799519Y-101604819D01*
X53799519Y-101604819D02*
X53704281Y-101652438D01*
X53704281Y-101652438D02*
X53656662Y-101700057D01*
X53656662Y-101700057D02*
X53561424Y-101842914D01*
X53561424Y-101842914D02*
X53513805Y-102033390D01*
X53513805Y-102033390D02*
X53513805Y-102414342D01*
X53513805Y-102414342D02*
X53561424Y-102509580D01*
X53561424Y-102509580D02*
X53609043Y-102557200D01*
X53609043Y-102557200D02*
X53704281Y-102604819D01*
X53704281Y-102604819D02*
X53894757Y-102604819D01*
X53894757Y-102604819D02*
X53989995Y-102557200D01*
X53989995Y-102557200D02*
X54037614Y-102509580D01*
X54037614Y-102509580D02*
X54085233Y-102414342D01*
X54085233Y-102414342D02*
X54085233Y-102176247D01*
X54085233Y-102176247D02*
X54037614Y-102081009D01*
X54037614Y-102081009D02*
X53989995Y-102033390D01*
X53989995Y-102033390D02*
X53894757Y-101985771D01*
X53894757Y-101985771D02*
X53704281Y-101985771D01*
X53704281Y-101985771D02*
X53609043Y-102033390D01*
X53609043Y-102033390D02*
X53561424Y-102081009D01*
X53561424Y-102081009D02*
X53513805Y-102176247D01*
X54466186Y-101700057D02*
X54513805Y-101652438D01*
X54513805Y-101652438D02*
X54609043Y-101604819D01*
X54609043Y-101604819D02*
X54847138Y-101604819D01*
X54847138Y-101604819D02*
X54942376Y-101652438D01*
X54942376Y-101652438D02*
X54989995Y-101700057D01*
X54989995Y-101700057D02*
X55037614Y-101795295D01*
X55037614Y-101795295D02*
X55037614Y-101890533D01*
X55037614Y-101890533D02*
X54989995Y-102033390D01*
X54989995Y-102033390D02*
X54418567Y-102604819D01*
X54418567Y-102604819D02*
X55037614Y-102604819D01*
X55466186Y-102509580D02*
X55513805Y-102557200D01*
X55513805Y-102557200D02*
X55466186Y-102604819D01*
X55466186Y-102604819D02*
X55418567Y-102557200D01*
X55418567Y-102557200D02*
X55466186Y-102509580D01*
X55466186Y-102509580D02*
X55466186Y-102604819D01*
X56418566Y-101604819D02*
X55942376Y-101604819D01*
X55942376Y-101604819D02*
X55894757Y-102081009D01*
X55894757Y-102081009D02*
X55942376Y-102033390D01*
X55942376Y-102033390D02*
X56037614Y-101985771D01*
X56037614Y-101985771D02*
X56275709Y-101985771D01*
X56275709Y-101985771D02*
X56370947Y-102033390D01*
X56370947Y-102033390D02*
X56418566Y-102081009D01*
X56418566Y-102081009D02*
X56466185Y-102176247D01*
X56466185Y-102176247D02*
X56466185Y-102414342D01*
X56466185Y-102414342D02*
X56418566Y-102509580D01*
X56418566Y-102509580D02*
X56370947Y-102557200D01*
X56370947Y-102557200D02*
X56275709Y-102604819D01*
X56275709Y-102604819D02*
X56037614Y-102604819D01*
X56037614Y-102604819D02*
X55942376Y-102557200D01*
X55942376Y-102557200D02*
X55894757Y-102509580D01*
D10*
X23750000Y-96750000D02*
X23750000Y-104736420D01*
X86250000Y-104736420D02*
X86250000Y-96750000D01*
X23750000Y-104150000D02*
X86250000Y-104150000D01*
X23750000Y-104150000D02*
X24876504Y-103563579D01*
X23750000Y-104150000D02*
X24876504Y-104736421D01*
X86250000Y-104150000D02*
X85123496Y-104736421D01*
X86250000Y-104150000D02*
X85123496Y-103563579D01*
D11*
X54190476Y-25054819D02*
X54857142Y-25054819D01*
X54857142Y-25054819D02*
X54428571Y-26054819D01*
X55428571Y-25054819D02*
X55523809Y-25054819D01*
X55523809Y-25054819D02*
X55619047Y-25102438D01*
X55619047Y-25102438D02*
X55666666Y-25150057D01*
X55666666Y-25150057D02*
X55714285Y-25245295D01*
X55714285Y-25245295D02*
X55761904Y-25435771D01*
X55761904Y-25435771D02*
X55761904Y-25673866D01*
X55761904Y-25673866D02*
X55714285Y-25864342D01*
X55714285Y-25864342D02*
X55666666Y-25959580D01*
X55666666Y-25959580D02*
X55619047Y-26007200D01*
X55619047Y-26007200D02*
X55523809Y-26054819D01*
X55523809Y-26054819D02*
X55428571Y-26054819D01*
X55428571Y-26054819D02*
X55333333Y-26007200D01*
X55333333Y-26007200D02*
X55285714Y-25959580D01*
X55285714Y-25959580D02*
X55238095Y-25864342D01*
X55238095Y-25864342D02*
X55190476Y-25673866D01*
X55190476Y-25673866D02*
X55190476Y-25435771D01*
X55190476Y-25435771D02*
X55238095Y-25245295D01*
X55238095Y-25245295D02*
X55285714Y-25150057D01*
X55285714Y-25150057D02*
X55333333Y-25102438D01*
X55333333Y-25102438D02*
X55428571Y-25054819D01*
D10*
X20000000Y-29500000D02*
X20000000Y-26163580D01*
X90000000Y-26163580D02*
X90000000Y-29500000D01*
X20000000Y-26750000D02*
X90000000Y-26750000D01*
X20000000Y-26750000D02*
X21126504Y-26163579D01*
X20000000Y-26750000D02*
X21126504Y-27336421D01*
X90000000Y-26750000D02*
X88873496Y-27336421D01*
X90000000Y-26750000D02*
X88873496Y-26163579D01*
X20351191Y-102357419D02*
X20970238Y-102357419D01*
X20970238Y-102357419D02*
X20636905Y-102738371D01*
X20636905Y-102738371D02*
X20779762Y-102738371D01*
X20779762Y-102738371D02*
X20875000Y-102785990D01*
X20875000Y-102785990D02*
X20922619Y-102833609D01*
X20922619Y-102833609D02*
X20970238Y-102928847D01*
X20970238Y-102928847D02*
X20970238Y-103166942D01*
X20970238Y-103166942D02*
X20922619Y-103262180D01*
X20922619Y-103262180D02*
X20875000Y-103309800D01*
X20875000Y-103309800D02*
X20779762Y-103357419D01*
X20779762Y-103357419D02*
X20494048Y-103357419D01*
X20494048Y-103357419D02*
X20398810Y-103309800D01*
X20398810Y-103309800D02*
X20351191Y-103262180D01*
X21398810Y-103262180D02*
X21446429Y-103309800D01*
X21446429Y-103309800D02*
X21398810Y-103357419D01*
X21398810Y-103357419D02*
X21351191Y-103309800D01*
X21351191Y-103309800D02*
X21398810Y-103262180D01*
X21398810Y-103262180D02*
X21398810Y-103357419D01*
X21779762Y-102357419D02*
X22446428Y-102357419D01*
X22446428Y-102357419D02*
X22017857Y-103357419D01*
X23303571Y-102357419D02*
X22827381Y-102357419D01*
X22827381Y-102357419D02*
X22779762Y-102833609D01*
X22779762Y-102833609D02*
X22827381Y-102785990D01*
X22827381Y-102785990D02*
X22922619Y-102738371D01*
X22922619Y-102738371D02*
X23160714Y-102738371D01*
X23160714Y-102738371D02*
X23255952Y-102785990D01*
X23255952Y-102785990D02*
X23303571Y-102833609D01*
X23303571Y-102833609D02*
X23351190Y-102928847D01*
X23351190Y-102928847D02*
X23351190Y-103166942D01*
X23351190Y-103166942D02*
X23303571Y-103262180D01*
X23303571Y-103262180D02*
X23255952Y-103309800D01*
X23255952Y-103309800D02*
X23160714Y-103357419D01*
X23160714Y-103357419D02*
X22922619Y-103357419D01*
X22922619Y-103357419D02*
X22827381Y-103309800D01*
X22827381Y-103309800D02*
X22779762Y-103262180D01*
X23750000Y-96600000D02*
X23750000Y-104586420D01*
X20000000Y-104586420D02*
X20000000Y-96600000D01*
X23750000Y-104000000D02*
X20000000Y-104000000D01*
X23750000Y-104000000D02*
X22623496Y-104586421D01*
X23750000Y-104000000D02*
X22623496Y-103413579D01*
X20000000Y-104000000D02*
X21126504Y-103413579D01*
X20000000Y-104000000D02*
X21126504Y-104586421D01*
D11*
X16464819Y-97297618D02*
X16464819Y-96678571D01*
X16464819Y-96678571D02*
X16845771Y-97011904D01*
X16845771Y-97011904D02*
X16845771Y-96869047D01*
X16845771Y-96869047D02*
X16893390Y-96773809D01*
X16893390Y-96773809D02*
X16941009Y-96726190D01*
X16941009Y-96726190D02*
X17036247Y-96678571D01*
X17036247Y-96678571D02*
X17274342Y-96678571D01*
X17274342Y-96678571D02*
X17369580Y-96726190D01*
X17369580Y-96726190D02*
X17417200Y-96773809D01*
X17417200Y-96773809D02*
X17464819Y-96869047D01*
X17464819Y-96869047D02*
X17464819Y-97154761D01*
X17464819Y-97154761D02*
X17417200Y-97249999D01*
X17417200Y-97249999D02*
X17369580Y-97297618D01*
X17369580Y-96249999D02*
X17417200Y-96202380D01*
X17417200Y-96202380D02*
X17464819Y-96249999D01*
X17464819Y-96249999D02*
X17417200Y-96297618D01*
X17417200Y-96297618D02*
X17369580Y-96249999D01*
X17369580Y-96249999D02*
X17464819Y-96249999D01*
X16464819Y-95297619D02*
X16464819Y-95773809D01*
X16464819Y-95773809D02*
X16941009Y-95821428D01*
X16941009Y-95821428D02*
X16893390Y-95773809D01*
X16893390Y-95773809D02*
X16845771Y-95678571D01*
X16845771Y-95678571D02*
X16845771Y-95440476D01*
X16845771Y-95440476D02*
X16893390Y-95345238D01*
X16893390Y-95345238D02*
X16941009Y-95297619D01*
X16941009Y-95297619D02*
X17036247Y-95250000D01*
X17036247Y-95250000D02*
X17274342Y-95250000D01*
X17274342Y-95250000D02*
X17369580Y-95297619D01*
X17369580Y-95297619D02*
X17417200Y-95345238D01*
X17417200Y-95345238D02*
X17464819Y-95440476D01*
X17464819Y-95440476D02*
X17464819Y-95678571D01*
X17464819Y-95678571D02*
X17417200Y-95773809D01*
X17417200Y-95773809D02*
X17369580Y-95821428D01*
D10*
X23250000Y-94500000D02*
X18163580Y-94500000D01*
X18163580Y-98000000D02*
X23250000Y-98000000D01*
X18750000Y-94500000D02*
X18750000Y-98000000D01*
X18750000Y-94500000D02*
X19336421Y-95626504D01*
X18750000Y-94500000D02*
X18163579Y-95626504D01*
X18750000Y-98000000D02*
X18163579Y-96873496D01*
X18750000Y-98000000D02*
X19336421Y-96873496D01*
D11*
X13044819Y-99648808D02*
X13044819Y-99029761D01*
X13044819Y-99029761D02*
X13425771Y-99363094D01*
X13425771Y-99363094D02*
X13425771Y-99220237D01*
X13425771Y-99220237D02*
X13473390Y-99124999D01*
X13473390Y-99124999D02*
X13521009Y-99077380D01*
X13521009Y-99077380D02*
X13616247Y-99029761D01*
X13616247Y-99029761D02*
X13854342Y-99029761D01*
X13854342Y-99029761D02*
X13949580Y-99077380D01*
X13949580Y-99077380D02*
X13997200Y-99124999D01*
X13997200Y-99124999D02*
X14044819Y-99220237D01*
X14044819Y-99220237D02*
X14044819Y-99505951D01*
X14044819Y-99505951D02*
X13997200Y-99601189D01*
X13997200Y-99601189D02*
X13949580Y-99648808D01*
X13949580Y-98601189D02*
X13997200Y-98553570D01*
X13997200Y-98553570D02*
X14044819Y-98601189D01*
X14044819Y-98601189D02*
X13997200Y-98648808D01*
X13997200Y-98648808D02*
X13949580Y-98601189D01*
X13949580Y-98601189D02*
X14044819Y-98601189D01*
X13044819Y-98220237D02*
X13044819Y-97553571D01*
X13044819Y-97553571D02*
X14044819Y-97982142D01*
X13044819Y-96696428D02*
X13044819Y-97172618D01*
X13044819Y-97172618D02*
X13521009Y-97220237D01*
X13521009Y-97220237D02*
X13473390Y-97172618D01*
X13473390Y-97172618D02*
X13425771Y-97077380D01*
X13425771Y-97077380D02*
X13425771Y-96839285D01*
X13425771Y-96839285D02*
X13473390Y-96744047D01*
X13473390Y-96744047D02*
X13521009Y-96696428D01*
X13521009Y-96696428D02*
X13616247Y-96648809D01*
X13616247Y-96648809D02*
X13854342Y-96648809D01*
X13854342Y-96648809D02*
X13949580Y-96696428D01*
X13949580Y-96696428D02*
X13997200Y-96744047D01*
X13997200Y-96744047D02*
X14044819Y-96839285D01*
X14044819Y-96839285D02*
X14044819Y-97077380D01*
X14044819Y-97077380D02*
X13997200Y-97172618D01*
X13997200Y-97172618D02*
X13949580Y-97220237D01*
D10*
X23250000Y-96250000D02*
X14153580Y-96250000D01*
X14153580Y-100000000D02*
X23260000Y-100000000D01*
X14740000Y-96250000D02*
X14740000Y-100000000D01*
X14740000Y-96250000D02*
X15326421Y-97376504D01*
X14740000Y-96250000D02*
X14153579Y-97376504D01*
X14740000Y-100000000D02*
X14153579Y-98873496D01*
X14740000Y-100000000D02*
X15326421Y-98873496D01*
D11*
X91554819Y-65809523D02*
X91554819Y-65142857D01*
X91554819Y-65142857D02*
X92554819Y-65571428D01*
X91554819Y-64571428D02*
X91554819Y-64476190D01*
X91554819Y-64476190D02*
X91602438Y-64380952D01*
X91602438Y-64380952D02*
X91650057Y-64333333D01*
X91650057Y-64333333D02*
X91745295Y-64285714D01*
X91745295Y-64285714D02*
X91935771Y-64238095D01*
X91935771Y-64238095D02*
X92173866Y-64238095D01*
X92173866Y-64238095D02*
X92364342Y-64285714D01*
X92364342Y-64285714D02*
X92459580Y-64333333D01*
X92459580Y-64333333D02*
X92507200Y-64380952D01*
X92507200Y-64380952D02*
X92554819Y-64476190D01*
X92554819Y-64476190D02*
X92554819Y-64571428D01*
X92554819Y-64571428D02*
X92507200Y-64666666D01*
X92507200Y-64666666D02*
X92459580Y-64714285D01*
X92459580Y-64714285D02*
X92364342Y-64761904D01*
X92364342Y-64761904D02*
X92173866Y-64809523D01*
X92173866Y-64809523D02*
X91935771Y-64809523D01*
X91935771Y-64809523D02*
X91745295Y-64761904D01*
X91745295Y-64761904D02*
X91650057Y-64714285D01*
X91650057Y-64714285D02*
X91602438Y-64666666D01*
X91602438Y-64666666D02*
X91554819Y-64571428D01*
D10*
X90500000Y-30000000D02*
X93836420Y-30000000D01*
X93836420Y-100000000D02*
X90500000Y-100000000D01*
X93250000Y-30000000D02*
X93250000Y-100000000D01*
X93250000Y-30000000D02*
X93836421Y-31126504D01*
X93250000Y-30000000D02*
X92663579Y-31126504D01*
X93250000Y-100000000D02*
X92663579Y-98873496D01*
X93250000Y-100000000D02*
X93836421Y-98873496D01*
M02*
